<svg width="138" height="55" viewBox="0 0 138 55" fill="none" xmlns="http://www.w3.org/2000/svg">
<mask id="mask0_31_1716" style="mask-type:luminance" maskUnits="userSpaceOnUse" x="0" y="0" width="138" height="55">
<path d="M138 0.0847168H0V55H138V0.0847168Z" fill="white"/>
</mask>
<g mask="url(#mask0_31_1716)">
<path d="M6.03652 1.58582C6.03652 1.58582 8.51935 5.66976 12.3653 8.1072C14.4911 9.44699 16.4222 10.8191 21.8585 11.384C26.4022 11.8522 30.7999 10.5124 35.3761 10.238C39.9686 9.88283 45.1289 9.97968 49.3806 12.1911C42.4838 11.6907 36.4471 13.8215 31.7411 18.2121C19.1322 29.9151 12.917 26.719 11.3916 25.9119C8.4869 24.3784 5.09532 18.8417 5.6146 4.4591C5.64706 3.52286 5.6146 2.29607 6.02029 1.58582" fill="#004A98"/>
<path d="M33.5908 19.8749C37.0473 18.3252 40.6498 16.6949 43.6357 15.6134C46.6865 14.548 49.3803 14.0799 52.7719 14.9031C54.4434 15.2905 56.3582 16.0653 58.4354 16.6142C60.4963 17.163 62.687 17.4051 64.6992 17.2598C68.7886 16.9854 72.2451 15.1937 75.588 13.6117C77.6651 12.6432 82.4847 9.80222 89.3166 8.30101C94.0388 7.25178 99.3128 6.60609 104.343 8.09116C105.56 8.47857 106.778 8.97897 107.881 9.51166C108.903 9.99592 109.991 10.4318 111.094 10.8353C113.301 11.6586 115.54 12.3849 117.812 12.9822C122.194 14.3543 126.981 13.6602 131.233 11.7716C131.233 11.7716 130.892 12.1751 130.145 12.8531C129.399 13.531 125.456 16.7756 120.571 17.8732C116.758 18.7288 113.544 18.5674 110.396 18.0185C97.7712 15.8071 95.9699 17.5181 90.6635 19.8264C86.3956 21.6828 78.2818 25.1856 72.7644 25.7667C64.3747 26.6384 59.7011 23.0387 58.695 22.5867C55.9038 21.3599 52.3175 18.2929 48.8773 17.7925C47.2383 17.5504 44.5445 17.5988 42.0292 18.0347C40.8284 18.2445 33.607 19.8587 33.607 19.8587" fill="#004A98"/>
<path d="M134.754 45.0241C133.553 45.46 131.427 45.8797 128.23 46.0895C125.115 46.2832 121.042 45.9604 117.114 44.6851C114.956 43.9749 109.974 41.1016 106.502 38.535C104.716 37.2114 100.351 34.5157 94.7527 34.5479C90.6633 34.4188 86.0709 35.6617 81.6895 36.4688C84.3346 34.6286 86.9472 32.7723 89.8682 31.029C92.8054 29.3179 96.3917 27.397 100.432 27.6069C102.38 27.7037 105.95 28.4785 109.99 31.0128C112.425 32.5302 115.946 35.4196 117.942 37.1468C120.149 39.0516 125.553 42.4253 129.09 43.8619C131.265 44.7497 133.91 45.121 134.754 45.0241Z" fill="#C2D5ED"/>
<path d="M106.421 23.4422C100.919 22.9256 95.5318 24.33 91.5722 26.267C89.5762 27.2194 78.2006 35.1775 71.0118 37.8086C67.4417 39.0031 63.0765 39.6488 59.1494 38.0185C56.7639 37.0338 55.0113 35.4842 52.9666 34.6932C50.9544 33.8538 48.8123 33.4503 46.6054 33.4341C42.1752 33.4341 37.3881 34.3219 32.7794 35.4842C28.9822 36.4527 25.266 36.8724 21.7446 36.6141C16.5518 36.2267 8.48662 33.8699 4.21875 31.3679C4.21875 31.3679 6.55553 31.8199 9.94711 31.7876C13.3387 31.7876 17.7851 31.3034 21.6797 29.8506C23.3512 29.221 30.5562 25.121 32.3251 24.2493C35.9114 22.4898 37.9236 21.7473 39.8871 21.2791C44.723 20.1169 49.0558 21.5697 51.4088 22.4252C58.7599 25.121 65.1049 31.0128 68.886 31.4164C73.235 31.8845 77.8436 29.334 84.2211 26.38C93.341 22.1508 102.201 22.4737 106.421 23.4422Z" fill="#C2D5ED"/>
<path d="M17.2008 49.8183C16.7951 49.7376 16.4543 49.6407 16.1947 49.5277C15.935 49.4309 15.789 49.3663 15.789 49.3502L15.6592 49.1403C15.6592 49.1403 15.6916 48.9143 15.7241 48.6722C15.7565 48.4301 15.8052 48.1072 15.8377 47.6875C15.8864 47.284 15.9026 46.8804 15.9026 46.493L17.1846 46.3962C17.1846 46.9773 17.2333 47.4293 17.3469 47.736C17.4442 48.0427 17.6227 48.2687 17.8661 48.3978C18.1096 48.5269 18.4666 48.5915 18.9209 48.5915C19.424 48.5915 19.8297 48.4785 20.1218 48.2687C20.4301 48.0588 20.5762 47.7521 20.5762 47.3647C20.5762 47.0257 20.4139 46.7352 20.1056 46.493C19.781 46.2509 19.2942 45.9765 18.6288 45.6536C18.5802 45.6375 18.4666 45.5729 18.2718 45.4761C17.4929 45.1048 16.8763 44.7174 16.4381 44.2977C16 43.878 15.789 43.3453 15.789 42.6835C15.789 42.0862 15.9675 41.5697 16.3245 41.0854C16.6815 40.6173 17.1684 40.2461 17.8012 39.9878C18.4341 39.7295 19.1481 39.5842 19.9433 39.5842C20.3977 39.5842 20.8358 39.6165 21.2253 39.6811C21.6147 39.7457 21.9231 39.8102 22.1665 39.8748C22.3937 39.9394 22.5559 39.9878 22.6046 40.0039L22.7182 40.1976C22.7182 40.1976 22.6695 40.4236 22.6208 40.6657C22.5722 40.924 22.5073 41.2469 22.4586 41.6343C22.4099 42.0217 22.3612 42.4252 22.3287 42.8449L21.1766 42.9418L21.0305 42.8449C21.0305 42.8449 21.0305 42.7481 21.0468 42.6512C21.0468 42.5544 21.0468 42.4252 21.0468 42.28C21.0468 41.8118 20.9332 41.489 20.6898 41.2791C20.4626 41.0854 20.0569 40.9886 19.5051 40.9886C19.0508 40.9886 18.6938 41.1016 18.4017 41.3114C18.1096 41.5213 17.9635 41.7957 17.9635 42.1347C17.9635 42.3768 18.0609 42.6028 18.2394 42.8126C18.4179 43.0225 18.6451 43.1839 18.8885 43.3292C19.1481 43.4745 19.5214 43.6682 20.0082 43.9103C20.5924 44.1847 21.0792 44.443 21.4525 44.669C21.8419 44.895 22.1502 45.1855 22.4099 45.5406C22.6695 45.8958 22.7994 46.3155 22.7994 46.7997C22.7994 47.4131 22.6208 47.962 22.2638 48.4462C21.9068 48.9143 21.4038 49.2856 20.7547 49.5439C20.1056 49.8021 19.3429 49.9313 18.4828 49.9313C17.996 49.9313 17.5578 49.8829 17.1521 49.8021" fill="#004A98"/>
<path d="M24.6174 48.9951C24.0007 48.3494 23.6924 47.4778 23.6924 46.3801C23.6924 45.6053 23.8547 44.9273 24.1792 44.3301C24.5038 43.7328 24.9581 43.2647 25.5261 42.9257C26.1103 42.5867 26.7594 42.4253 27.4897 42.4253C27.8304 42.4253 28.155 42.4414 28.4471 42.4899C28.7392 42.5383 28.9826 42.5867 29.1449 42.6351C29.3071 42.6836 29.4207 42.7158 29.4694 42.732L29.5343 42.8773C29.5343 42.8773 29.5019 43.0871 29.4532 43.3131C29.4045 43.5391 29.3558 43.8296 29.3072 44.1686C29.2585 44.5238 29.2098 44.895 29.1936 45.2663L28.1874 45.3309V44.8143C28.1874 44.4592 28.1063 44.1848 27.9278 43.9911C27.7493 43.7974 27.5221 43.7005 27.1976 43.7005C26.7107 43.7005 26.3375 43.8781 26.0778 44.2332C25.8182 44.5883 25.6884 45.1049 25.6884 45.7667C25.6884 46.6222 25.8344 47.2679 26.1428 47.7199C26.4511 48.1719 26.873 48.414 27.4247 48.414C27.6844 48.414 27.944 48.3817 28.1874 48.3171C28.4309 48.2526 28.6418 48.1719 28.8041 48.1073C28.9664 48.0266 29.0637 47.9943 29.1124 47.962L29.226 48.0104L29.4694 48.8014C29.4694 48.8014 29.226 48.979 28.9664 49.1727C28.7067 49.3502 28.3984 49.5278 28.0576 49.7054C27.7168 49.8829 27.4085 49.9636 27.1164 49.9636C26.0616 49.9636 25.2178 49.6408 24.6011 49.0112" fill="#004A98"/>
<path d="M30.9455 48.6399C31.0591 48.5269 31.1078 48.3171 31.1078 48.0265V40.472C31.1078 40.133 31.0591 39.907 30.9617 39.7941C30.8643 39.6649 30.7021 39.6003 30.4424 39.6003H30.0854L30.0205 39.5358L30.1179 38.7287C31.2376 38.5673 32.2924 38.4058 33.2823 38.2283L33.3959 38.5188C33.2823 38.6318 33.2011 39.1484 33.1362 40.0685C33.0551 40.9886 33.0064 42.2154 32.9577 43.7489C33.2985 43.426 33.6717 43.1193 34.1099 42.8288C34.548 42.5382 34.8563 42.4091 35.0511 42.4091C35.7976 42.4091 36.3817 42.5866 36.7874 42.9256C37.1931 43.2807 37.4041 43.765 37.4041 44.4107C37.4041 44.6528 37.3554 45.2016 37.258 46.041C37.1607 47.1064 37.0958 47.7844 37.0958 48.0749C37.0958 48.3493 37.1282 48.543 37.2094 48.656C37.2905 48.769 37.4203 48.8336 37.5988 48.8336L38.0694 48.8013L38.1019 48.8659L37.9558 49.8183H37.5988C36.9984 49.786 36.544 49.7698 36.2682 49.7698C35.8787 49.7698 35.3107 49.8183 34.5318 49.899L34.6129 48.9305C34.8726 48.882 35.0673 48.7852 35.1809 48.656C35.2945 48.5269 35.3594 48.3171 35.3594 48.0588L35.4243 45.3631C35.4243 44.4591 35.0998 44.0071 34.402 44.0071C34.2235 44.0071 33.9963 44.0717 33.7204 44.1847C33.4445 44.2977 33.1849 44.4591 32.9415 44.6528C32.9253 45.2501 32.909 46.4123 32.909 48.1072C32.909 48.3655 32.9415 48.543 33.0226 48.656C33.1038 48.7529 33.2174 48.8175 33.3796 48.8175H33.7853L33.8178 48.882L33.6555 49.8183C33.5257 49.8183 33.4121 49.8183 33.3472 49.8183C32.7468 49.8021 32.2762 49.786 31.9678 49.786C31.3674 49.786 30.7832 49.786 30.2315 49.8344L30.3775 48.882C30.6534 48.8497 30.8319 48.769 30.9455 48.656" fill="#004A98"/>
<path d="M39.8868 47.1549C39.4974 45.7506 39.2215 44.7982 39.0592 44.2978C38.8969 43.7812 38.5886 43.523 38.1018 43.523L38.0693 43.4584L38.1829 42.5867H39.6272C40.0491 42.5867 40.4873 42.5867 40.9092 42.5544C41.3311 42.5221 41.607 42.506 41.7368 42.4899L41.7692 42.5706L41.6232 43.4584C41.3149 43.4907 41.1039 43.5391 41.0065 43.5875C40.9092 43.636 40.8605 43.7328 40.8605 43.8619C40.8605 44.0395 40.9903 44.6852 41.2662 45.7828C41.5421 46.8805 41.7206 47.6392 41.8342 48.0266H41.9964C42.321 47.1711 42.7591 45.8958 43.2784 44.2009C43.2135 43.9588 43.1161 43.7812 43.0025 43.6844C42.889 43.5875 42.678 43.5391 42.4021 43.5391L42.3534 43.4584L42.4833 42.5867H43.9275C44.3494 42.5867 44.7714 42.5867 45.1933 42.5706C45.599 42.5383 45.8748 42.5222 45.9884 42.5222L46.0209 42.6029L45.8911 43.4907C45.5665 43.523 45.3718 43.5552 45.2744 43.6037C45.1933 43.6521 45.1446 43.7489 45.1446 43.8781C45.1446 44.0556 45.2744 44.7013 45.5503 45.799C45.8262 46.8966 46.0047 47.6553 46.1183 48.0427H46.2643C46.7187 46.7675 47.0757 45.7828 47.3029 45.1049C47.5301 44.4269 47.6437 44.0072 47.6437 43.8458C47.6437 43.7167 47.6112 43.636 47.5463 43.5875C47.4814 43.5391 47.3516 43.523 47.1406 43.523H46.7187L46.6538 43.4261L46.7836 42.5706C46.8972 42.5706 47.0919 42.5706 47.4165 42.5867C47.7248 42.5867 48.0656 42.5867 48.4388 42.5867H49.8668L49.737 43.5068C49.5098 43.5391 49.3476 43.6037 49.2502 43.7167C49.1528 43.8297 49.0392 44.0556 48.8932 44.4269L46.9621 49.7538L45.0472 49.9959C45.0148 49.7699 44.7714 48.8175 44.3332 47.1065L44.0736 46.0895H43.8951L42.6942 49.7538L40.7469 49.9959C40.6171 49.5117 40.3412 48.5593 39.9517 47.1549" fill="#004A98"/>
<path d="M50.565 48.9628C50.8733 48.9144 51.0843 48.8175 51.2303 48.6561C51.3764 48.5108 51.4413 48.2848 51.4413 47.9943V44.6367C51.4413 44.2977 51.3926 44.0717 51.2952 43.9588C51.1979 43.8296 51.0356 43.7812 50.776 43.7812C50.6948 43.7812 50.6299 43.7812 50.5488 43.7812C50.4839 43.7812 50.4352 43.7973 50.4189 43.8135L50.5163 42.9257C51.1005 42.845 51.7009 42.7481 52.3014 42.6351C52.9018 42.5221 53.2912 42.4575 53.4697 42.4091L53.6158 42.6512C53.5022 42.8772 53.4048 43.5068 53.3399 44.5237C53.275 45.5407 53.2426 46.7513 53.2426 48.1234C53.2426 48.3655 53.275 48.5431 53.3562 48.6561C53.4373 48.7529 53.5509 48.8175 53.7294 48.8175C53.8268 48.8175 53.9079 48.8175 54.0053 48.8175C54.0864 48.8175 54.1513 48.8014 54.1838 48.8014L54.2324 48.8821L54.0702 49.8345C53.9566 49.8345 53.7294 49.8183 53.3886 49.8022C53.0478 49.8022 52.707 49.786 52.35 49.786C52.0255 49.786 51.6522 49.8183 51.2466 49.8506C50.8409 49.899 50.565 49.9313 50.4352 49.9475L50.565 48.9628ZM51.4088 40.7788C51.2141 40.5851 51.133 40.3268 51.133 39.9878C51.133 39.6165 51.2466 39.3098 51.4737 39.0839C51.7009 38.8579 51.993 38.7449 52.3663 38.7449C52.6908 38.7449 52.9667 38.8417 53.1452 39.0516C53.3399 39.2453 53.4211 39.5197 53.4211 39.8587C53.4211 40.2138 53.3075 40.5205 53.0803 40.7465C52.8531 40.9725 52.561 41.0855 52.204 41.0855C51.8632 41.0855 51.5873 40.9886 51.4088 40.7949" fill="#004A98"/>
<path d="M60.5934 48.6399C60.707 48.5108 60.7557 48.301 60.7719 48.0427L60.8206 45.347C60.8206 44.895 60.7394 44.556 60.5609 44.33C60.3987 44.104 60.139 43.991 59.7982 43.991C59.3925 43.991 58.9382 44.1847 58.4189 44.5883C58.3215 46.4608 58.2566 47.623 58.2566 48.0911C58.2566 48.3655 58.2891 48.5431 58.354 48.6399C58.4189 48.7368 58.5487 48.7852 58.7272 48.7852H59.1491L59.1816 48.8337L59.0193 49.8022C58.9057 49.8022 58.6948 49.786 58.3702 49.7699C58.0456 49.7699 57.7211 49.7699 57.3803 49.7699C56.9584 49.7699 56.5689 49.7699 56.2119 49.7699C55.8549 49.7699 55.6277 49.786 55.5141 49.8022L55.6602 48.8498C55.9685 48.8336 56.1795 48.7529 56.2931 48.6238C56.4229 48.4947 56.4716 48.2848 56.4716 47.9943V44.7013C56.4716 44.3462 56.4229 44.0879 56.3093 43.9588C56.1957 43.8296 56.001 43.765 55.7089 43.765H55.5141L55.4492 43.6843L55.5304 42.8772C56.1146 42.7965 56.6988 42.6997 57.2829 42.5867C57.8671 42.4737 58.2404 42.4091 58.4027 42.3768L58.5325 42.5382C58.5325 42.5382 58.4838 42.732 58.4351 42.9579C58.3864 43.1839 58.3702 43.3938 58.354 43.6198L58.4027 43.6682C58.7759 43.3776 59.1654 43.1032 59.571 42.8288C59.9767 42.5544 60.2851 42.4091 60.4636 42.4091C61.0478 42.4091 61.5184 42.5221 61.8916 42.732C62.2648 42.9579 62.5245 43.2646 62.6705 43.7005C62.9626 43.4422 63.3359 43.1678 63.7902 42.8611C64.2446 42.5544 64.5692 42.4091 64.7477 42.4091C65.4941 42.4091 66.0621 42.5867 66.484 42.9418C66.906 43.2969 67.1007 43.7812 67.1007 44.4107C67.1007 44.6529 67.052 45.2017 66.9546 46.0411C66.8573 47.1064 66.7924 47.7844 66.7924 48.075C66.7924 48.3494 66.8248 48.5431 66.9059 48.6561C66.9871 48.7691 67.1169 48.8337 67.2954 48.8337C67.3928 48.8337 67.4901 48.8337 67.5875 48.8337C67.6849 48.8337 67.7498 48.8337 67.7822 48.8337L67.8147 48.8982L67.6524 49.8506C67.5226 49.8506 67.2954 49.8345 66.9709 49.8183C66.6301 49.8183 66.3055 49.8183 65.9485 49.8183C65.7051 49.8183 65.3806 49.8183 65.0073 49.8506C64.6179 49.8667 64.3744 49.8829 64.2608 49.899L64.3744 48.9305C64.6178 48.8982 64.7801 48.8175 64.8775 48.6884C64.9749 48.5592 65.0398 48.3655 65.0398 48.0911L65.0885 45.3954C65.0885 44.4914 64.7639 44.0395 64.0661 44.0395C63.6766 44.0395 63.2223 44.2332 62.7192 44.6206L62.5245 48.1234C62.5245 48.3978 62.5732 48.5915 62.6381 48.7045C62.7192 48.8175 62.8328 48.8821 63.0113 48.8821C63.1087 48.8821 63.1898 48.8821 63.271 48.8821C63.3521 48.8821 63.417 48.8821 63.4495 48.8821L63.4819 48.9466L63.3196 49.899C63.206 49.899 62.9789 49.8829 62.6705 49.8667C62.346 49.8667 62.0214 49.8667 61.6806 49.8667C61.4372 49.8667 61.1127 49.8829 60.707 49.9313C60.3175 49.9636 60.0579 49.9959 59.9281 49.9959L60.0416 49.0274C60.2851 48.9789 60.4798 48.8821 60.5772 48.7529" fill="#004A98"/>
<path d="M73.7701 48.6399C73.8837 48.5108 73.9324 48.301 73.9486 48.0427L73.9973 45.347C73.9973 44.895 73.9162 44.556 73.7377 44.33C73.5754 44.104 73.3158 43.991 72.975 43.991C72.5693 43.991 72.1149 44.1847 71.5956 44.5883C71.4983 46.4608 71.4334 47.623 71.4334 48.0911C71.4334 48.3655 71.4658 48.5431 71.5307 48.6399C71.5956 48.7368 71.7255 48.7852 71.904 48.7852H72.3259L72.3583 48.8337L72.1961 49.8022C72.0825 49.8022 71.8715 49.786 71.547 49.7699C71.2224 49.7699 70.8978 49.7699 70.5571 49.7699C70.1351 49.7699 69.7457 49.7699 69.3887 49.7699C69.0317 49.7699 68.8045 49.786 68.6909 49.8022L68.8369 48.8498C69.1453 48.8336 69.3562 48.7529 69.4698 48.6238C69.5996 48.4947 69.6483 48.2848 69.6483 47.9943V44.7013C69.6483 44.3462 69.5996 44.0879 69.486 43.9588C69.3724 43.8296 69.1777 43.765 68.8856 43.765H68.6909L68.626 43.6843L68.7071 42.8772C69.2913 42.7965 69.8755 42.6997 70.4597 42.5867C71.0439 42.4737 71.4171 42.4091 71.5794 42.3768L71.7092 42.5382C71.7092 42.5382 71.6605 42.732 71.6119 42.9579C71.5632 43.1839 71.547 43.3938 71.5307 43.6198L71.5794 43.6682C71.9526 43.3776 72.3421 43.1032 72.7478 42.8288C73.1535 42.5544 73.4618 42.4091 73.6403 42.4091C74.2245 42.4091 74.6951 42.5221 75.0684 42.732C75.4416 42.9579 75.7012 43.2646 75.8473 43.7005C76.1394 43.4422 76.5126 43.1678 76.967 42.8611C77.4214 42.5544 77.7459 42.4091 77.9244 42.4091C78.6709 42.4091 79.2389 42.5867 79.6608 42.9418C80.0827 43.2969 80.2774 43.7812 80.2774 44.4107C80.2774 44.6529 80.2288 45.2017 80.1314 46.0411C80.034 47.1064 79.9691 47.7844 79.9691 48.075C79.9691 48.3494 80.0016 48.5431 80.0827 48.6561C80.1638 48.7691 80.2937 48.8337 80.4722 48.8337C80.5695 48.8337 80.6669 48.8337 80.7643 48.8337C80.8616 48.8337 80.9265 48.8337 80.959 48.8337L80.9914 48.8982L80.8292 49.8506C80.6994 49.8506 80.4722 49.8345 80.1476 49.8183C79.8068 49.8183 79.4823 49.8183 79.1253 49.8183C78.8819 49.8183 78.5573 49.8183 78.1841 49.8506C77.7946 49.8667 77.5512 49.8829 77.4376 49.899L77.5512 48.9305C77.7946 48.8982 77.9569 48.8175 78.0542 48.6884C78.1516 48.5592 78.2165 48.3655 78.2165 48.0911L78.2652 45.3954C78.2652 44.4914 77.9406 44.0395 77.2429 44.0395C76.8534 44.0395 76.399 44.2332 75.896 44.6206L75.7012 48.1234C75.7012 48.3978 75.7499 48.5915 75.8148 48.7045C75.896 48.8175 76.0096 48.8821 76.1881 48.8821C76.2854 48.8821 76.3666 48.8821 76.4477 48.8821C76.5288 48.8821 76.5938 48.8821 76.6262 48.8821L76.6587 48.9466L76.4964 49.899C76.3828 49.899 76.1556 49.8829 75.8473 49.8667C75.5227 49.8667 75.1982 49.8667 74.8574 49.8667C74.614 49.8667 74.2894 49.8829 73.8837 49.9313C73.4943 49.9636 73.2346 49.9959 73.1048 49.9959L73.2184 49.0274C73.4618 48.9789 73.6565 48.8821 73.7539 48.7529" fill="#004A98"/>
<path d="M83.8151 49.8183C83.4094 49.7376 83.0686 49.6407 82.8089 49.5277C82.5493 49.4309 82.4033 49.3663 82.4033 49.3502L82.2734 49.1403C82.2734 49.1403 82.3059 48.9143 82.3383 48.6722C82.3708 48.4301 82.4195 48.1072 82.4519 47.6875C82.5006 47.284 82.5168 46.8804 82.5168 46.493L83.7988 46.3962C83.7988 46.9773 83.8475 47.4293 83.9611 47.736C84.0585 48.0427 84.237 48.2687 84.4804 48.3978C84.7238 48.5269 85.0808 48.5915 85.5352 48.5915C86.0383 48.5915 86.4439 48.4785 86.736 48.2687C87.0444 48.0588 87.1904 47.7521 87.1904 47.3647C87.1904 47.0257 87.0281 46.7352 86.7198 46.493C86.3953 46.2509 85.9084 45.9765 85.2431 45.6536C85.1944 45.6375 85.0808 45.5729 84.8861 45.4761C84.1072 45.1048 83.4905 44.7174 83.0524 44.2977C82.6142 43.878 82.4033 43.3453 82.4033 42.6835C82.4033 42.0862 82.5818 41.5697 82.9388 41.0854C83.2958 40.6173 83.7826 40.2461 84.4155 39.9878C85.0484 39.7295 85.7624 39.5842 86.5575 39.5842C87.0119 39.5842 87.4338 39.6165 87.8395 39.6811C88.229 39.7457 88.5373 39.8102 88.7807 39.8748C89.0079 39.9394 89.1702 39.9878 89.2189 40.0039L89.3325 40.1976C89.3325 40.1976 89.2838 40.4236 89.2351 40.6657C89.1864 40.924 89.1377 41.2469 89.0728 41.6343C89.0241 42.0217 88.9755 42.4252 88.943 42.8449L87.7908 42.9418L87.6448 42.8449C87.6448 42.8449 87.6448 42.7481 87.6448 42.6512C87.6448 42.5544 87.661 42.4252 87.661 42.28C87.661 41.8118 87.5474 41.489 87.304 41.2791C87.0768 41.0854 86.6711 40.9886 86.1194 40.9886C85.665 40.9886 85.308 41.1016 85.0159 41.3114C84.7238 41.5213 84.594 41.7957 84.594 42.1347C84.594 42.3768 84.6914 42.6028 84.8699 42.8126C85.0484 43.0225 85.2756 43.1839 85.519 43.3292C85.7786 43.4745 86.1518 43.6682 86.6387 43.9103C87.2229 44.1847 87.7097 44.443 88.0829 44.669C88.4724 44.895 88.7807 45.1855 89.0404 45.5406C89.3 45.8958 89.4298 46.3155 89.4298 46.7997C89.4298 47.4131 89.2513 47.962 88.8943 48.4462C88.5373 48.9143 88.0343 49.2856 87.3851 49.5439C86.736 49.8021 85.9733 49.9313 85.1133 49.9313C84.6264 49.9313 84.1883 49.8829 83.7826 49.8021" fill="#004A98"/>
<path d="M90.2737 52.4818C90.5658 52.4657 90.7605 52.385 90.8417 52.272C90.9228 52.1428 90.9715 51.8846 90.9877 51.5133C91.0364 50.5286 91.0688 49.7377 91.0688 49.1404V44.7336C91.0688 44.3785 91.0202 44.1364 90.9066 44.0072C90.793 43.8781 90.5982 43.7974 90.3061 43.7974H90.0952L90.0303 43.7167L90.1114 42.9096C90.6956 42.8289 91.2798 42.732 91.8478 42.619C92.4157 42.506 92.789 42.4253 92.9675 42.4092L93.1135 42.5706C93.1135 42.5706 93.0811 42.7643 93.0324 42.9742C92.9837 43.1679 92.9675 43.3777 92.935 43.5553L92.9999 43.636C93.86 42.8773 94.3793 42.506 94.574 42.506C95.1907 42.506 95.7262 42.6513 96.1968 42.9257C96.6674 43.2001 97.0244 43.6037 97.284 44.1202C97.5437 44.6368 97.6735 45.234 97.6735 45.912C97.6735 46.7191 97.495 47.4132 97.138 48.0266C96.781 48.64 96.2941 49.1081 95.6775 49.4471C95.0446 49.7861 94.3306 49.9475 93.5354 49.9475C93.4056 49.9475 93.2596 49.9475 93.1298 49.9475C92.9999 49.9475 92.9026 49.9314 92.8539 49.9152V51.368C92.8539 51.7877 92.9026 52.0783 92.9675 52.2235C93.0324 52.3688 93.1947 52.4334 93.4219 52.4334C93.5679 52.4334 93.6977 52.4334 93.8113 52.4334C93.9249 52.4334 94.0061 52.4334 94.071 52.4334L94.1034 52.498L93.9411 53.4503C93.714 53.4503 93.503 53.4503 93.3245 53.4503H92.0587C91.6855 53.4503 91.3123 53.4503 90.9228 53.4665C90.5333 53.4988 90.2737 53.5149 90.1601 53.5149L90.2899 52.5625L90.2737 52.4818ZM95.2556 48.075C95.5315 47.6876 95.6775 47.1549 95.6775 46.4608C95.6775 45.7022 95.5314 45.1049 95.2394 44.6529C94.9473 44.201 94.574 43.975 94.1034 43.975C93.9574 43.975 93.7789 44.0234 93.5679 44.1041C93.3569 44.1848 93.1622 44.3139 92.9675 44.4592C92.9026 45.6699 92.8701 46.9935 92.8701 48.4302C92.9999 48.4786 93.1784 48.527 93.4056 48.5916C93.6328 48.64 93.8438 48.6723 94.0547 48.6723C94.5578 48.6723 94.9635 48.4786 95.2394 48.0912" fill="#004A98"/>
<path d="M102.835 49.6408C102.575 49.4471 102.413 49.1404 102.364 48.753L102.234 48.7046C101.91 49.0436 101.585 49.3341 101.261 49.5601C100.952 49.7861 100.693 49.8991 100.514 49.8991C99.8975 49.8991 99.3944 49.6892 98.9887 49.2534C98.583 48.8176 98.3721 48.2849 98.3721 47.6392C98.3721 47.3164 98.4532 47.042 98.6155 46.7998C98.7778 46.5738 99.0049 46.4124 99.2646 46.3478L102.283 45.6537V45.2825C102.299 44.8305 102.186 44.4915 101.942 44.2332C101.699 43.9911 101.374 43.862 100.952 43.862C100.676 43.862 100.368 43.9265 100.044 44.0718C99.719 44.2171 99.4106 44.3785 99.1348 44.5884L98.9887 44.5238L98.7291 43.5876C99.2484 43.297 99.8001 43.0226 100.368 42.7805C100.936 42.5383 101.342 42.4092 101.585 42.4092C102.445 42.4092 103.094 42.6029 103.532 42.9903C103.971 43.3777 104.182 43.8943 104.182 44.5238C104.182 44.7498 104.133 45.2179 104.036 45.9281C103.922 46.929 103.857 47.5424 103.857 47.7361C103.857 47.9298 103.906 48.0912 104.019 48.2042C104.117 48.3172 104.263 48.3817 104.425 48.3817C104.555 48.3817 104.685 48.3495 104.831 48.301C104.977 48.2365 105.09 48.188 105.188 48.1235L105.415 48.4463C105.22 48.7853 104.993 49.092 104.717 49.3987C104.441 49.7054 104.165 49.8991 103.906 49.9637C103.451 49.9637 103.078 49.8668 102.818 49.657M101.634 48.301C101.845 48.2203 102.04 48.1073 102.202 47.9782L102.25 46.4931L100.579 46.9612C100.336 47.0258 100.206 47.1872 100.206 47.4778C100.206 47.7683 100.287 47.9782 100.449 48.1558C100.611 48.3333 100.822 48.4302 101.082 48.4302C101.244 48.4302 101.423 48.3817 101.634 48.301Z" fill="#004A98"/>
<path d="M111.078 49.6891C110.672 49.5116 110.445 49.3017 110.397 49.0435C110.397 48.8336 110.478 48.5269 110.624 48.1718C110.77 47.8005 110.916 47.5261 111.062 47.3485H111.37C111.387 47.7682 111.516 48.1072 111.76 48.3655C112.003 48.6238 112.311 48.7529 112.701 48.7529C112.961 48.7529 113.188 48.656 113.366 48.4623C113.545 48.2686 113.642 48.0426 113.642 47.7682C113.642 47.4938 113.529 47.2517 113.301 47.0418C113.074 46.8481 112.733 46.606 112.263 46.3477C111.857 46.1217 111.516 45.9119 111.273 45.7182C111.013 45.5245 110.802 45.2824 110.624 45.0079C110.445 44.7335 110.348 44.3945 110.348 44.0071C110.348 43.6843 110.429 43.3776 110.591 43.1355C110.754 42.8772 110.997 42.5866 111.322 42.2477C111.597 41.9732 111.792 41.7311 111.938 41.5374C112.068 41.3437 112.133 41.1177 112.133 40.8917C112.133 40.5043 111.987 40.1976 111.695 39.9555C111.403 39.7134 111.013 39.6004 110.543 39.6004C109.991 39.6004 109.601 39.7941 109.374 40.1653C109.147 40.5366 109.034 41.1661 109.034 42.0539L108.952 48.0265C108.952 48.5108 109.131 48.7529 109.488 48.7529C109.65 48.7529 109.78 48.7529 109.877 48.7529C109.975 48.7529 110.04 48.7529 110.072 48.7529L110.137 48.8336L109.991 49.8506C109.861 49.8506 109.618 49.8506 109.261 49.8344C108.92 49.8344 108.563 49.8183 108.238 49.8183C107.914 49.8183 107.524 49.8183 107.07 49.8506C106.632 49.8667 106.34 49.899 106.194 49.9151L106.291 48.9627C106.632 48.9143 106.859 48.8336 106.989 48.6883C107.102 48.5431 107.167 48.3009 107.167 47.9619V44.4268C107.167 44.2008 107.086 44.0394 106.94 43.9587C106.794 43.878 106.534 43.8134 106.145 43.8134L106.08 43.7166L106.21 42.9256L107.167 42.7642C107.167 41.3598 107.508 40.246 108.206 39.4712C108.904 38.6803 109.861 38.2928 111.094 38.2928C111.646 38.2928 112.133 38.3897 112.587 38.5673C113.026 38.761 113.366 39.0192 113.626 39.3421C113.869 39.6811 113.999 40.0523 113.999 40.4559C113.999 40.8271 113.918 41.15 113.74 41.4405C113.561 41.715 113.318 42.0378 112.993 42.3768C112.75 42.6351 112.555 42.8611 112.425 43.0386C112.295 43.2162 112.23 43.426 112.23 43.6359C112.23 43.878 112.328 44.104 112.539 44.2815C112.75 44.4591 113.074 44.6851 113.545 44.9434C113.983 45.1855 114.34 45.4115 114.6 45.6052C114.859 45.7989 115.103 46.041 115.281 46.3477C115.476 46.6544 115.573 47.0096 115.573 47.4131C115.573 47.8974 115.427 48.3332 115.151 48.7206C114.875 49.1242 114.502 49.4309 114.032 49.6569C113.561 49.8828 113.026 50.012 112.458 50.012C111.938 50.012 111.468 49.9313 111.078 49.7537" fill="#004A98"/>
</g>
</svg>
