<svg width="13" height="23" viewBox="0 0 13 23" fill="none" xmlns="http://www.w3.org/2000/svg">
<mask id="path-1-inside-1_55_947" fill="white">
<path d="M11.4471 12.6988L12.0521 8.75803H8.27051V6.2007C8.27051 5.12278 8.79858 4.0714 10.4924 4.0714H12.2113V0.716517C12.2113 0.716517 10.6516 0.450439 9.15993 0.450439C6.04594 0.450439 4.01055 2.33816 4.01055 5.75497V8.75871H0.548828V12.6995H4.01055V22.2266H8.27051V12.6995L11.4471 12.6988Z"/>
</mask>
<path d="M11.4471 12.6988L12.0521 8.75803H8.27051V6.2007C8.27051 5.12278 8.79858 4.0714 10.4924 4.0714H12.2113V0.716517C12.2113 0.716517 10.6516 0.450439 9.15993 0.450439C6.04594 0.450439 4.01055 2.33816 4.01055 5.75497V8.75871H0.548828V12.6995H4.01055V22.2266H8.27051V12.6995L11.4471 12.6988Z" fill="#F28D08"/>
<path d="M11.4471 12.6988L11.4484 18.7583L16.6475 18.7572L17.4364 13.6183L11.4471 12.6988ZM12.0521 8.75803L18.0413 9.67747L19.1127 2.6986H12.0521V8.75803ZM8.27051 8.75803H2.21108V14.8175H8.27051V8.75803ZM12.2113 4.0714V10.1308H18.2707V4.0714H12.2113ZM12.2113 0.716517H18.2707V-4.39676L13.2303 -5.25662L12.2113 0.716517ZM4.01055 8.75871V14.8181H10.07V8.75871H4.01055ZM0.548828 8.75871V2.69928H-5.51061V8.75871H0.548828ZM0.548828 12.6995H-5.51061V18.7589H0.548828V12.6995ZM4.01055 12.6995H10.07V6.64008H4.01055V12.6995ZM4.01055 22.2266H-2.04888V28.286H4.01055V22.2266ZM8.27051 22.2266V28.286H14.3299V22.2266H8.27051ZM8.27051 12.6995L8.26921 6.64008L2.21108 6.64138V12.6995H8.27051ZM17.4364 13.6183L18.0413 9.67747L6.0628 7.8386L5.45783 11.7794L17.4364 13.6183ZM12.0521 2.6986H8.27051V14.8175H12.0521V2.6986ZM14.3299 8.75803V6.2007H2.21108V8.75803H14.3299ZM14.3299 6.2007C14.3299 6.54252 14.2565 7.62328 13.3301 8.69485C12.2615 9.93081 10.9621 10.1308 10.4924 10.1308V-1.98803C8.32887 -1.98803 5.91852 -1.26231 4.16246 0.768815C2.54854 2.63555 2.21108 4.78096 2.21108 6.2007H14.3299ZM10.4924 10.1308H12.2113V-1.98803H10.4924V10.1308ZM18.2707 4.0714V0.716517H6.15188V4.0714H18.2707ZM12.2113 0.716517C13.2303 -5.25662 13.2298 -5.2567 13.2293 -5.25679C13.2292 -5.25681 13.2287 -5.2569 13.2284 -5.25695C13.2277 -5.25707 13.227 -5.25718 13.2263 -5.25731C13.2249 -5.25755 13.2233 -5.25781 13.2217 -5.25809C13.2184 -5.25864 13.2148 -5.25926 13.2107 -5.25994C13.2026 -5.2613 13.193 -5.26291 13.1818 -5.26476C13.1594 -5.26845 13.131 -5.27309 13.0969 -5.27854C13.0287 -5.28943 12.9374 -5.30361 12.8264 -5.31994C12.6053 -5.35247 12.3004 -5.39437 11.9397 -5.436C11.2442 -5.51627 10.2281 -5.60899 9.15993 -5.60899V6.50987C9.58341 6.50987 10.093 6.55019 10.5503 6.60296C10.7659 6.62784 10.9442 6.65247 11.0622 6.66983C11.1207 6.67843 11.1629 6.68504 11.1859 6.68871C11.1973 6.69054 11.2038 6.69161 11.2051 6.69181C11.2057 6.69192 11.205 6.6918 11.2029 6.69144C11.2018 6.69127 11.2004 6.69103 11.1987 6.69073C11.1978 6.69058 11.1968 6.69042 11.1958 6.69024C11.1952 6.69015 11.1947 6.69006 11.1941 6.68996C11.1938 6.68991 11.1934 6.68984 11.1932 6.68981C11.1928 6.68974 11.1923 6.68966 12.2113 0.716517ZM9.15993 -5.60899C6.37823 -5.60899 3.41024 -4.74306 1.1306 -2.46103C-1.15509 -0.172965 -2.04888 2.8373 -2.04888 5.75497H10.07C10.07 5.49739 10.1085 5.4547 10.0708 5.55847C10.0279 5.67607 9.91958 5.88842 9.70439 6.10384C9.48986 6.31859 9.26957 6.43583 9.12626 6.48834C8.99602 6.53606 8.98859 6.50987 9.15993 6.50987V-5.60899ZM-2.04888 5.75497V8.75871H10.07V5.75497H-2.04888ZM4.01055 2.69928H0.548828V14.8181H4.01055V2.69928ZM-5.51061 8.75871V12.6995H6.60826V8.75871H-5.51061ZM0.548828 18.7589H4.01055V6.64008H0.548828V18.7589ZM-2.04888 12.6995V22.2266H10.07V12.6995H-2.04888ZM4.01055 28.286H8.27051V16.1671H4.01055V28.286ZM14.3299 22.2266V12.6995H2.21108V22.2266H14.3299ZM8.27181 18.7589L11.4484 18.7583L11.4458 6.6394L8.26921 6.64008L8.27181 18.7589Z" fill="#EF8700" fill-opacity="0.6" mask="url(#path-1-inside-1_55_947)"/>
</svg>
