<svg width="22" height="23" viewBox="0 0 22 23" fill="none" xmlns="http://www.w3.org/2000/svg">
<path d="M11.1117 0.450439C8.15182 0.450439 7.78294 0.464732 6.62457 0.513734C5.46145 0.570904 4.67469 0.75126 3.98049 1.02077C3.26451 1.30118 2.6547 1.67346 2.05238 2.27918C1.44597 2.8815 1.07029 3.49131 0.793967 4.20729C0.524453 4.90149 0.344097 5.68825 0.286928 6.85138C0.234522 8.01042 0.223633 8.37862 0.223633 11.3385C0.223633 14.2984 0.237925 14.6673 0.286928 15.8256C0.344097 16.9854 0.524453 17.7755 0.793967 18.4697C1.07437 19.1857 1.44665 19.7955 2.05238 20.3978C2.6547 21.0042 3.26451 21.3799 3.98049 21.6562C4.67469 21.9223 5.46485 22.1061 6.62457 22.1633C7.78362 22.2157 8.15182 22.2266 11.1117 22.2266C14.0716 22.2266 14.4405 22.2123 15.5988 22.1633C16.7585 22.1061 17.5487 21.9217 18.2429 21.6562C18.9589 21.3758 19.5687 21.0036 20.171 20.3978C20.7774 19.7955 21.1531 19.1891 21.4294 18.4697C21.6955 17.7755 21.8793 16.9854 21.9365 15.8256C21.9889 14.6666 21.9998 14.2984 21.9998 11.3385C21.9998 8.37862 21.9855 8.00974 21.9365 6.85138C21.8793 5.69166 21.6949 4.89741 21.4294 4.20729C21.149 3.49131 20.7767 2.8815 20.171 2.27918C19.5687 1.67278 18.9623 1.29709 18.2429 1.02077C17.5487 0.75126 16.7585 0.570904 15.5988 0.513734C14.4398 0.461329 14.0716 0.450439 11.1117 0.450439ZM11.1117 2.41054C14.0185 2.41054 14.3656 2.42483 15.5144 2.47383C16.5741 2.52351 17.1512 2.70047 17.5344 2.8502C18.0455 3.04825 18.4029 3.28237 18.7894 3.66486C19.1685 4.04395 19.4026 4.40534 19.6007 4.91647C19.7504 5.29964 19.9274 5.87678 19.9771 6.93645C20.0261 8.08529 20.0403 8.43307 20.0403 11.3392C20.0403 14.2453 20.0261 14.5931 19.973 15.7419C19.9158 16.8016 19.7388 17.3787 19.5898 17.7619C19.3836 18.273 19.1535 18.6303 18.7738 19.0169C18.3906 19.396 18.0258 19.6301 17.5188 19.8282C17.1404 19.9779 16.555 20.1549 15.4913 20.2045C14.3363 20.2535 13.996 20.2678 11.0818 20.2678C8.16747 20.2678 7.82786 20.2535 6.67154 20.2005C5.61186 20.1433 5.02723 19.9663 4.64406 19.8173C4.12681 19.6111 3.77222 19.381 3.39246 19.0013C3.00928 18.6181 2.76563 18.2533 2.57779 17.7463C2.42534 17.3678 2.25111 16.7825 2.19462 15.7188C2.15583 14.5774 2.13745 14.2235 2.13745 11.3229C2.13745 8.42354 2.15583 8.06895 2.19462 6.91331C2.25111 5.84955 2.42534 5.26561 2.57779 4.88584C2.76563 4.36791 3.00997 4.014 3.39246 3.63083C3.77154 3.25174 4.12681 3.00673 4.64406 2.81481C5.02723 2.66576 5.59757 2.4888 6.66133 2.43572C7.81629 2.3942 8.15658 2.37923 11.0668 2.37923L11.1117 2.41054ZM11.1117 5.75019C8.02114 5.75019 5.52202 8.25271 5.52202 11.3399C5.52202 14.4304 8.02455 16.9295 11.1117 16.9295C14.2023 16.9295 16.7014 14.427 16.7014 11.3399C16.7014 8.24931 14.1989 5.75019 11.1117 5.75019ZM11.1117 14.9694C9.10532 14.9694 7.48212 13.3462 7.48212 11.3399C7.48212 9.33349 9.10532 7.71028 11.1117 7.71028C13.1181 7.71028 14.7413 9.33349 14.7413 11.3399C14.7413 13.3462 13.1181 14.9694 11.1117 14.9694ZM18.2334 5.52695C18.2334 6.25042 17.6447 6.83437 16.9246 6.83437C16.2011 6.83437 15.6172 6.24974 15.6172 5.52695C15.6172 4.80757 16.2052 4.22226 16.9246 4.22226C17.644 4.22226 18.2334 4.80757 18.2334 5.52695Z" fill="#F28D08"/>
<path d="M17.6571 20.1428C18.1782 19.938 18.5891 19.6856 19.0141 19.2598C19.0152 19.2587 19.0164 19.2575 19.0175 19.2564C19.0184 19.2554 19.0194 19.2545 19.0203 19.2536L19.0274 19.2464L19.0274 19.2465C19.4621 18.8147 19.7149 18.4063 19.9128 17.8922C19.9133 17.8911 19.9137 17.89 19.9141 17.8889L17.6571 20.1428ZM17.6571 20.1428C17.6531 20.1444 17.6491 20.1459 17.6451 20.1474L17.5188 19.8282L17.6571 20.1428ZM21.594 15.8168C21.5941 15.8146 21.5942 15.8124 21.5944 15.8102L21.1043 18.3448C21.315 17.8019 21.5272 17.0565 21.5934 15.8293L21.5935 15.8293L21.594 15.8168ZM21.1022 18.3502C21.1029 18.3485 21.1035 18.3468 21.1042 18.3451L18.1202 21.3354C18.8217 21.06 19.3727 20.7072 19.9151 20.1705L19.9233 20.1624L19.9287 20.1569L19.9302 20.1554L19.9314 20.1542C20.4675 19.6085 20.8124 19.0688 21.0947 18.3691L21.0985 18.3597L21.1022 18.3502ZM18.1125 21.3385C18.1142 21.3378 18.1159 21.3371 18.1177 21.3364L18.1125 21.3385ZM16.6106 5.52695C16.6106 5.34923 16.7534 5.21156 16.9246 5.21156C17.0979 5.21156 17.24 5.35404 17.24 5.52695C17.24 5.70822 17.0971 5.84507 16.9246 5.84507C16.7543 5.84507 16.6106 5.71041 16.6106 5.52695Z" stroke="#EF8700" stroke-opacity="0.6" stroke-width="3.24561"/>
</svg>
