<svg width="138" height="55" viewBox="0 0 138 55" fill="none" xmlns="http://www.w3.org/2000/svg">
<mask id="mask0_31_1716" style="mask-type:luminance" maskUnits="userSpaceOnUse" x="0" y="0" width="138" height="55">
<path d="M138 0.0847473H0V55H138V0.0847473Z" fill="white"/>
</mask>
<g mask="url(#mask0_31_1716)">
<path d="M6.03652 1.58595C6.03652 1.58595 8.51935 5.66989 12.3653 8.10734C14.4911 9.44713 16.4222 10.8192 21.8585 11.3842C26.4022 11.8523 30.7999 10.5125 35.3761 10.2381C39.9686 9.88297 45.1289 9.97982 49.3806 12.1913C42.4838 11.6909 36.4471 13.8216 31.7411 18.2123C19.1322 29.9153 12.917 26.7191 11.3916 25.912C8.4869 24.3785 5.09532 18.8418 5.6146 4.45924C5.64706 3.523 5.6146 2.2962 6.02029 1.58595" fill="#004A98"/>
<path d="M33.5908 19.8749C37.0473 18.3253 40.6498 16.6949 43.6357 15.6134C46.6865 14.548 49.3803 14.0799 52.7719 14.9031C54.4434 15.2905 56.3582 16.0654 58.4354 16.6142C60.4963 17.163 62.687 17.4052 64.6992 17.2599C68.7886 16.9855 72.2451 15.1937 75.588 13.6118C77.6651 12.6433 82.4847 9.80225 89.3166 8.30104C94.0388 7.25181 99.3128 6.60612 104.343 8.09119C105.56 8.4786 106.778 8.979 107.881 9.51169C108.903 9.99595 109.991 10.4318 111.094 10.8353C113.301 11.6586 115.54 12.385 117.812 12.9822C122.194 14.3543 126.981 13.6602 131.233 11.7716C131.233 11.7716 130.892 12.1751 130.145 12.8531C129.399 13.5311 125.456 16.7756 120.571 17.8733C116.758 18.7288 113.544 18.5674 110.396 18.0186C97.7712 15.8071 95.9699 17.5182 90.6635 19.8265C86.3956 21.6828 78.2818 25.1856 72.7644 25.7667C64.3747 26.6384 59.7011 23.0387 58.695 22.5868C55.9038 21.36 52.3175 18.293 48.8773 17.7926C47.2383 17.5504 44.5445 17.5989 42.0292 18.0347C40.8284 18.2445 33.607 19.8587 33.607 19.8587" fill="#004A98"/>
<path d="M134.754 45.0242C133.553 45.46 131.427 45.8797 128.23 46.0896C125.115 46.2833 121.042 45.9604 117.114 44.6852C114.956 43.975 109.974 41.1017 106.502 38.5351C104.716 37.2115 100.351 34.5157 94.7527 34.548C90.6633 34.4189 86.0709 35.6618 81.6895 36.4689C84.3346 34.6287 86.9472 32.7724 89.8682 31.029C92.8054 29.318 96.3917 27.3971 100.432 27.6069C102.38 27.7038 105.95 28.4786 109.99 31.0129C112.425 32.5303 115.946 35.4197 117.942 37.1469C120.149 39.0516 125.553 42.4253 129.09 43.862C131.265 44.7498 133.91 45.1211 134.754 45.0242Z" fill="#C2D5ED"/>
<path d="M106.421 23.4423C100.919 22.9257 95.5318 24.3301 91.5722 26.2671C89.5762 27.2195 78.2006 35.1776 71.0118 37.8087C67.4417 39.0032 63.0765 39.6489 59.1494 38.0186C56.7639 37.0339 55.0113 35.4843 52.9666 34.6933C50.9544 33.8539 48.8123 33.4504 46.6054 33.4342C42.1752 33.4342 37.3881 34.322 32.7794 35.4843C28.9822 36.4528 25.266 36.8725 21.7446 36.6142C16.5518 36.2268 8.48662 33.8701 4.21875 31.368C4.21875 31.368 6.55553 31.82 9.94711 31.7877C13.3387 31.7877 17.7851 31.3035 21.6797 29.8507C23.3512 29.2211 30.5562 25.1211 32.3251 24.2494C35.9114 22.4899 37.9236 21.7474 39.8871 21.2793C44.723 20.117 49.0558 21.5698 51.4088 22.4253C58.7599 25.1211 65.1049 31.0129 68.886 31.4165C73.235 31.8846 77.8436 29.3341 84.2211 26.3801C93.341 22.1509 102.201 22.4738 106.421 23.4423Z" fill="#C2D5ED"/>
<path d="M17.2008 49.8184C16.7951 49.7377 16.4543 49.6408 16.1947 49.5278C15.935 49.431 15.789 49.3664 15.789 49.3503L15.6592 49.1404C15.6592 49.1404 15.6916 48.9144 15.7241 48.6723C15.7565 48.4302 15.8052 48.1073 15.8377 47.6876C15.8864 47.2841 15.9026 46.8805 15.9026 46.4931L17.1846 46.3963C17.1846 46.9774 17.2333 47.4294 17.3469 47.7361C17.4442 48.0428 17.6227 48.2688 17.8661 48.3979C18.1096 48.527 18.4666 48.5916 18.9209 48.5916C19.424 48.5916 19.8297 48.4786 20.1218 48.2688C20.4301 48.0589 20.5762 47.7522 20.5762 47.3648C20.5762 47.0258 20.4139 46.7353 20.1056 46.4931C19.781 46.251 19.2942 45.9766 18.6288 45.6537C18.5802 45.6376 18.4666 45.573 18.2718 45.4762C17.4929 45.1049 16.8763 44.7175 16.4381 44.2978C16 43.8781 15.789 43.3454 15.789 42.6836C15.789 42.0864 15.9675 41.5698 16.3245 41.0855C16.6815 40.6174 17.1684 40.2462 17.8012 39.9879C18.4341 39.7296 19.1481 39.5843 19.9433 39.5843C20.3977 39.5843 20.8358 39.6166 21.2253 39.6812C21.6147 39.7458 21.9231 39.8103 22.1665 39.8749C22.3937 39.9395 22.5559 39.9879 22.6046 40.004L22.7182 40.1977C22.7182 40.1977 22.6695 40.4237 22.6208 40.6659C22.5722 40.9241 22.5073 41.247 22.4586 41.6344C22.4099 42.0218 22.3612 42.4253 22.3287 42.845L21.1766 42.9419L21.0305 42.845C21.0305 42.845 21.0305 42.7482 21.0468 42.6513C21.0468 42.5545 21.0468 42.4253 21.0468 42.2801C21.0468 41.8119 20.9332 41.4891 20.6898 41.2793C20.4626 41.0856 20.0569 40.9887 19.5051 40.9887C19.0508 40.9887 18.6938 41.1017 18.4017 41.3115C18.1096 41.5214 17.9635 41.7958 17.9635 42.1348C17.9635 42.3769 18.0609 42.6029 18.2394 42.8127C18.4179 43.0226 18.6451 43.184 18.8885 43.3293C19.1481 43.4746 19.5214 43.6683 20.0082 43.9104C20.5924 44.1848 21.0792 44.4431 21.4525 44.6691C21.8419 44.8951 22.1502 45.1856 22.4099 45.5408C22.6695 45.8959 22.7994 46.3156 22.7994 46.7998C22.7994 47.4132 22.6208 47.9621 22.2638 48.4463C21.9068 48.9144 21.4038 49.2857 20.7547 49.544C20.1056 49.8023 19.3429 49.9314 18.4828 49.9314C17.996 49.9314 17.5578 49.883 17.1521 49.8023" fill="#004A98"/>
<path d="M24.6174 48.9952C24.0007 48.3495 23.6924 47.4778 23.6924 46.3801C23.6924 45.6053 23.8547 44.9274 24.1792 44.3301C24.5038 43.7328 24.9581 43.2647 25.5261 42.9257C26.1103 42.5868 26.7594 42.4253 27.4897 42.4253C27.8304 42.4253 28.155 42.4415 28.4471 42.4899C28.7392 42.5383 28.9826 42.5868 29.1449 42.6352C29.3071 42.6836 29.4207 42.7159 29.4694 42.732L29.5343 42.8773C29.5343 42.8773 29.5019 43.0872 29.4532 43.3132C29.4045 43.5391 29.3558 43.8297 29.3072 44.1687C29.2585 44.5238 29.2098 44.8951 29.1936 45.2663L28.1874 45.3309V44.8144C28.1874 44.4592 28.1063 44.1848 27.9278 43.9911C27.7493 43.7974 27.5221 43.7006 27.1976 43.7006C26.7107 43.7006 26.3375 43.8781 26.0778 44.2332C25.8182 44.5884 25.6884 45.1049 25.6884 45.7667C25.6884 46.6223 25.8344 47.268 26.1428 47.7199C26.4511 48.1719 26.873 48.414 27.4247 48.414C27.6844 48.414 27.944 48.3818 28.1874 48.3172C28.4309 48.2526 28.6418 48.1719 28.8041 48.1073C28.9664 48.0266 29.0637 47.9943 29.1124 47.9621L29.226 48.0105L29.4694 48.8014C29.4694 48.8014 29.226 48.979 28.9664 49.1727C28.7067 49.3503 28.3984 49.5278 28.0576 49.7054C27.7168 49.883 27.4085 49.9637 27.1164 49.9637C26.0616 49.9637 25.2178 49.6408 24.6011 49.0113" fill="#004A98"/>
<path d="M30.9455 48.64C31.0591 48.527 31.1078 48.3172 31.1078 48.0266V40.4721C31.1078 40.1332 31.0591 39.9072 30.9617 39.7942C30.8643 39.665 30.7021 39.6005 30.4424 39.6005H30.0854L30.0205 39.5359L30.1179 38.7288C31.2376 38.5674 32.2924 38.406 33.2823 38.2284L33.3959 38.519C33.2823 38.6319 33.2011 39.1485 33.1362 40.0686C33.0551 40.9887 33.0064 42.2155 32.9577 43.749C33.2985 43.4261 33.6717 43.1194 34.1099 42.8289C34.548 42.5383 34.8563 42.4092 35.0511 42.4092C35.7976 42.4092 36.3817 42.5868 36.7874 42.9257C37.1931 43.2809 37.4041 43.7651 37.4041 44.4108C37.4041 44.6529 37.3554 45.2018 37.258 46.0411C37.1607 47.1065 37.0958 47.7845 37.0958 48.075C37.0958 48.3495 37.1282 48.5432 37.2094 48.6562C37.2905 48.7692 37.4203 48.8337 37.5988 48.8337L38.0694 48.8014L38.1019 48.866L37.9558 49.8184H37.5988C36.9984 49.7861 36.544 49.77 36.2682 49.77C35.8787 49.77 35.3107 49.8184 34.5318 49.8991L34.6129 48.9306C34.8726 48.8821 35.0673 48.7853 35.1809 48.6562C35.2945 48.527 35.3594 48.3172 35.3594 48.0589L35.4243 45.3632C35.4243 44.4592 35.0998 44.0072 34.402 44.0072C34.2235 44.0072 33.9963 44.0718 33.7204 44.1848C33.4445 44.2978 33.1849 44.4592 32.9415 44.6529C32.9253 45.2502 32.909 46.4124 32.909 48.1073C32.909 48.3656 32.9415 48.5432 33.0226 48.6562C33.1038 48.753 33.2174 48.8176 33.3796 48.8176H33.7853L33.8178 48.8821L33.6555 49.8184C33.5257 49.8184 33.4121 49.8184 33.3472 49.8184C32.7468 49.8022 32.2762 49.7861 31.9678 49.7861C31.3674 49.7861 30.7832 49.7861 30.2315 49.8345L30.3775 48.8821C30.6534 48.8499 30.8319 48.7692 30.9455 48.6562" fill="#004A98"/>
<path d="M39.8868 47.155C39.4974 45.7506 39.2215 44.7982 39.0592 44.2978C38.8969 43.7813 38.5886 43.523 38.1018 43.523L38.0693 43.4584L38.1829 42.5868H39.6272C40.0491 42.5868 40.4873 42.5868 40.9092 42.5545C41.3311 42.5222 41.607 42.5061 41.7368 42.4899L41.7692 42.5706L41.6232 43.4584C41.3149 43.4907 41.1039 43.5391 41.0065 43.5876C40.9092 43.636 40.8605 43.7328 40.8605 43.862C40.8605 44.0395 40.9903 44.6852 41.2662 45.7829C41.5421 46.8805 41.7206 47.6392 41.8342 48.0266H41.9964C42.321 47.1711 42.7591 45.8959 43.2784 44.201C43.2135 43.9588 43.1161 43.7813 43.0025 43.6844C42.889 43.5876 42.678 43.5391 42.4021 43.5391L42.3534 43.4584L42.4833 42.5868H43.9275C44.3494 42.5868 44.7714 42.5868 45.1933 42.5706C45.599 42.5383 45.8748 42.5222 45.9884 42.5222L46.0209 42.6029L45.8911 43.4907C45.5665 43.523 45.3718 43.5553 45.2744 43.6037C45.1933 43.6521 45.1446 43.749 45.1446 43.8781C45.1446 44.0557 45.2744 44.7014 45.5503 45.799C45.8262 46.8967 46.0047 47.6554 46.1183 48.0428H46.2643C46.7187 46.7676 47.0757 45.7829 47.3029 45.1049C47.5301 44.427 47.6437 44.0073 47.6437 43.8458C47.6437 43.7167 47.6112 43.636 47.5463 43.5876C47.4814 43.5391 47.3516 43.523 47.1406 43.523H46.7187L46.6538 43.4261L46.7836 42.5706C46.8972 42.5706 47.0919 42.5706 47.4165 42.5868C47.7248 42.5868 48.0656 42.5868 48.4388 42.5868H49.8668L49.737 43.5069C49.5098 43.5391 49.3476 43.6037 49.2502 43.7167C49.1528 43.8297 49.0392 44.0557 48.8932 44.427L46.9621 49.7538L45.0472 49.996C45.0148 49.77 44.7714 48.8176 44.3332 47.1065L44.0736 46.0896H43.8951L42.6942 49.7538L40.7469 49.996C40.6171 49.5117 40.3412 48.5593 39.9517 47.155" fill="#004A98"/>
<path d="M50.565 48.9629C50.8733 48.9145 51.0843 48.8176 51.2303 48.6562C51.3764 48.5109 51.4413 48.2849 51.4413 47.9944V44.6368C51.4413 44.2978 51.3926 44.0718 51.2952 43.9588C51.1979 43.8297 51.0356 43.7813 50.776 43.7813C50.6948 43.7813 50.6299 43.7813 50.5488 43.7813C50.4839 43.7813 50.4352 43.7974 50.4189 43.8136L50.5163 42.9258C51.1005 42.845 51.7009 42.7482 52.3014 42.6352C52.9018 42.5222 53.2912 42.4576 53.4697 42.4092L53.6158 42.6513C53.5022 42.8773 53.4048 43.5069 53.3399 44.5238C53.275 45.5408 53.2426 46.7514 53.2426 48.1235C53.2426 48.3656 53.275 48.5432 53.3562 48.6562C53.4373 48.753 53.5509 48.8176 53.7294 48.8176C53.8268 48.8176 53.9079 48.8176 54.0053 48.8176C54.0864 48.8176 54.1513 48.8015 54.1838 48.8015L54.2324 48.8822L54.0702 49.8346C53.9566 49.8346 53.7294 49.8184 53.3886 49.8023C53.0478 49.8023 52.707 49.7861 52.35 49.7861C52.0255 49.7861 51.6522 49.8184 51.2466 49.8507C50.8409 49.8991 50.565 49.9314 50.4352 49.9475L50.565 48.9629ZM51.4088 40.7789C51.2141 40.5852 51.133 40.3269 51.133 39.9879C51.133 39.6166 51.2466 39.3099 51.4737 39.0839C51.7009 38.858 51.993 38.745 52.3663 38.745C52.6908 38.745 52.9667 38.8418 53.1452 39.0517C53.3399 39.2454 53.4211 39.5198 53.4211 39.8588C53.4211 40.2139 53.3075 40.5206 53.0803 40.7466C52.8531 40.9726 52.561 41.0856 52.204 41.0856C51.8632 41.0856 51.5873 40.9887 51.4088 40.795" fill="#004A98"/>
<path d="M60.5934 48.64C60.707 48.5109 60.7557 48.3011 60.7719 48.0428L60.8206 45.3471C60.8206 44.8951 60.7394 44.5561 60.5609 44.3301C60.3987 44.1041 60.139 43.9911 59.7982 43.9911C59.3925 43.9911 58.9382 44.1848 58.4189 44.5884C58.3215 46.4609 58.2566 47.6231 58.2566 48.0912C58.2566 48.3656 58.2891 48.5432 58.354 48.64C58.4189 48.7369 58.5487 48.7853 58.7272 48.7853H59.1491L59.1816 48.8337L59.0193 49.8023C58.9057 49.8023 58.6948 49.7861 58.3702 49.77C58.0456 49.77 57.7211 49.77 57.3803 49.77C56.9584 49.77 56.5689 49.77 56.2119 49.77C55.8549 49.77 55.6277 49.7861 55.5141 49.8023L55.6602 48.8499C55.9685 48.8337 56.1795 48.753 56.2931 48.6239C56.4229 48.4948 56.4716 48.2849 56.4716 47.9944V44.7014C56.4716 44.3463 56.4229 44.088 56.3093 43.9588C56.1957 43.8297 56.001 43.7651 55.7089 43.7651H55.5141L55.4492 43.6844L55.5304 42.8773C56.1146 42.7966 56.6988 42.6998 57.2829 42.5868C57.8671 42.4738 58.2404 42.4092 58.4027 42.3769L58.5325 42.5383C58.5325 42.5383 58.4838 42.732 58.4351 42.958C58.3864 43.184 58.3702 43.3939 58.354 43.6199L58.4027 43.6683C58.7759 43.3777 59.1654 43.1033 59.571 42.8289C59.9767 42.5545 60.2851 42.4092 60.4636 42.4092C61.0478 42.4092 61.5184 42.5222 61.8916 42.732C62.2648 42.958 62.5245 43.2647 62.6705 43.7006C62.9626 43.4423 63.3359 43.1679 63.7902 42.8612C64.2446 42.5545 64.5692 42.4092 64.7477 42.4092C65.4941 42.4092 66.0621 42.5868 66.484 42.9419C66.906 43.297 67.1007 43.7813 67.1007 44.4108C67.1007 44.6529 67.052 45.2018 66.9546 46.0412C66.8573 47.1065 66.7924 47.7845 66.7924 48.0751C66.7924 48.3495 66.8248 48.5432 66.9059 48.6562C66.9871 48.7692 67.1169 48.8337 67.2954 48.8337C67.3928 48.8337 67.4901 48.8337 67.5875 48.8337C67.6849 48.8337 67.7498 48.8337 67.7822 48.8337L67.8147 48.8983L67.6524 49.8507C67.5226 49.8507 67.2954 49.8345 66.9709 49.8184C66.6301 49.8184 66.3055 49.8184 65.9485 49.8184C65.7051 49.8184 65.3806 49.8184 65.0073 49.8507C64.6179 49.8668 64.3744 49.883 64.2608 49.8991L64.3744 48.9306C64.6178 48.8983 64.7801 48.8176 64.8775 48.6885C64.9749 48.5593 65.0398 48.3656 65.0398 48.0912L65.0885 45.3955C65.0885 44.4915 64.7639 44.0396 64.0661 44.0396C63.6766 44.0396 63.2223 44.2333 62.7192 44.6207L62.5245 48.1235C62.5245 48.3979 62.5732 48.5916 62.6381 48.7046C62.7192 48.8176 62.8328 48.8822 63.0113 48.8822C63.1087 48.8822 63.1898 48.8822 63.271 48.8822C63.3521 48.8822 63.417 48.8822 63.4495 48.8822L63.4819 48.9467L63.3196 49.8991C63.206 49.8991 62.9789 49.883 62.6705 49.8668C62.346 49.8668 62.0214 49.8668 61.6806 49.8668C61.4372 49.8668 61.1127 49.883 60.707 49.9314C60.3175 49.9637 60.0579 49.996 59.9281 49.996L60.0416 49.0274C60.2851 48.979 60.4798 48.8822 60.5772 48.753" fill="#004A98"/>
<path d="M73.7701 48.64C73.8837 48.5109 73.9324 48.3011 73.9486 48.0428L73.9973 45.3471C73.9973 44.8951 73.9162 44.5561 73.7377 44.3301C73.5754 44.1041 73.3158 43.9911 72.975 43.9911C72.5693 43.9911 72.1149 44.1848 71.5956 44.5884C71.4983 46.4609 71.4334 47.6231 71.4334 48.0912C71.4334 48.3656 71.4658 48.5432 71.5307 48.64C71.5956 48.7369 71.7255 48.7853 71.904 48.7853H72.3259L72.3583 48.8337L72.1961 49.8023C72.0825 49.8023 71.8715 49.7861 71.547 49.77C71.2224 49.77 70.8978 49.77 70.5571 49.77C70.1351 49.77 69.7457 49.77 69.3887 49.77C69.0317 49.77 68.8045 49.7861 68.6909 49.8023L68.8369 48.8499C69.1453 48.8337 69.3562 48.753 69.4698 48.6239C69.5996 48.4948 69.6483 48.2849 69.6483 47.9944V44.7014C69.6483 44.3463 69.5996 44.088 69.486 43.9588C69.3724 43.8297 69.1777 43.7651 68.8856 43.7651H68.6909L68.626 43.6844L68.7071 42.8773C69.2913 42.7966 69.8755 42.6998 70.4597 42.5868C71.0439 42.4738 71.4171 42.4092 71.5794 42.3769L71.7092 42.5383C71.7092 42.5383 71.6605 42.732 71.6119 42.958C71.5632 43.184 71.547 43.3939 71.5307 43.6199L71.5794 43.6683C71.9526 43.3777 72.3421 43.1033 72.7478 42.8289C73.1535 42.5545 73.4618 42.4092 73.6403 42.4092C74.2245 42.4092 74.6951 42.5222 75.0684 42.732C75.4416 42.958 75.7012 43.2647 75.8473 43.7006C76.1394 43.4423 76.5126 43.1679 76.967 42.8612C77.4214 42.5545 77.7459 42.4092 77.9244 42.4092C78.6709 42.4092 79.2389 42.5868 79.6608 42.9419C80.0827 43.297 80.2774 43.7813 80.2774 44.4108C80.2774 44.6529 80.2288 45.2018 80.1314 46.0412C80.034 47.1065 79.9691 47.7845 79.9691 48.0751C79.9691 48.3495 80.0016 48.5432 80.0827 48.6562C80.1638 48.7692 80.2937 48.8337 80.4722 48.8337C80.5695 48.8337 80.6669 48.8337 80.7643 48.8337C80.8616 48.8337 80.9265 48.8337 80.959 48.8337L80.9914 48.8983L80.8292 49.8507C80.6994 49.8507 80.4722 49.8345 80.1476 49.8184C79.8068 49.8184 79.4823 49.8184 79.1253 49.8184C78.8819 49.8184 78.5573 49.8184 78.1841 49.8507C77.7946 49.8668 77.5512 49.883 77.4376 49.8991L77.5512 48.9306C77.7946 48.8983 77.9569 48.8176 78.0542 48.6885C78.1516 48.5593 78.2165 48.3656 78.2165 48.0912L78.2652 45.3955C78.2652 44.4915 77.9406 44.0396 77.2429 44.0396C76.8534 44.0396 76.399 44.2333 75.896 44.6207L75.7012 48.1235C75.7012 48.3979 75.7499 48.5916 75.8148 48.7046C75.896 48.8176 76.0096 48.8822 76.1881 48.8822C76.2854 48.8822 76.3666 48.8822 76.4477 48.8822C76.5288 48.8822 76.5938 48.8822 76.6262 48.8822L76.6587 48.9467L76.4964 49.8991C76.3828 49.8991 76.1556 49.883 75.8473 49.8668C75.5227 49.8668 75.1982 49.8668 74.8574 49.8668C74.614 49.8668 74.2894 49.883 73.8837 49.9314C73.4943 49.9637 73.2346 49.996 73.1048 49.996L73.2184 49.0274C73.4618 48.979 73.6565 48.8822 73.7539 48.753" fill="#004A98"/>
<path d="M83.8151 49.8184C83.4094 49.7377 83.0686 49.6408 82.8089 49.5278C82.5493 49.431 82.4033 49.3664 82.4033 49.3503L82.2734 49.1404C82.2734 49.1404 82.3059 48.9144 82.3383 48.6723C82.3708 48.4302 82.4195 48.1073 82.4519 47.6876C82.5006 47.2841 82.5168 46.8805 82.5168 46.4931L83.7988 46.3963C83.7988 46.9774 83.8475 47.4294 83.9611 47.7361C84.0585 48.0428 84.237 48.2688 84.4804 48.3979C84.7238 48.527 85.0808 48.5916 85.5352 48.5916C86.0383 48.5916 86.4439 48.4786 86.736 48.2688C87.0444 48.0589 87.1904 47.7522 87.1904 47.3648C87.1904 47.0258 87.0281 46.7353 86.7198 46.4931C86.3953 46.251 85.9084 45.9766 85.2431 45.6537C85.1944 45.6376 85.0808 45.573 84.8861 45.4762C84.1072 45.1049 83.4905 44.7175 83.0524 44.2978C82.6142 43.8781 82.4033 43.3454 82.4033 42.6836C82.4033 42.0864 82.5818 41.5698 82.9388 41.0855C83.2958 40.6174 83.7826 40.2462 84.4155 39.9879C85.0484 39.7296 85.7624 39.5843 86.5575 39.5843C87.0119 39.5843 87.4338 39.6166 87.8395 39.6812C88.229 39.7458 88.5373 39.8103 88.7807 39.8749C89.0079 39.9395 89.1702 39.9879 89.2189 40.004L89.3325 40.1977C89.3325 40.1977 89.2838 40.4237 89.2351 40.6659C89.1864 40.9241 89.1377 41.247 89.0728 41.6344C89.0241 42.0218 88.9755 42.4253 88.943 42.845L87.7908 42.9419L87.6448 42.845C87.6448 42.845 87.6448 42.7482 87.6448 42.6513C87.6448 42.5545 87.661 42.4253 87.661 42.2801C87.661 41.8119 87.5474 41.4891 87.304 41.2793C87.0768 41.0856 86.6711 40.9887 86.1194 40.9887C85.665 40.9887 85.308 41.1017 85.0159 41.3115C84.7238 41.5214 84.594 41.7958 84.594 42.1348C84.594 42.3769 84.6914 42.6029 84.8699 42.8127C85.0484 43.0226 85.2756 43.184 85.519 43.3293C85.7786 43.4746 86.1518 43.6683 86.6387 43.9104C87.2229 44.1848 87.7097 44.4431 88.0829 44.6691C88.4724 44.8951 88.7807 45.1856 89.0404 45.5408C89.3 45.8959 89.4298 46.3156 89.4298 46.7998C89.4298 47.4132 89.2513 47.9621 88.8943 48.4463C88.5373 48.9144 88.0343 49.2857 87.3851 49.544C86.736 49.8023 85.9733 49.9314 85.1133 49.9314C84.6264 49.9314 84.1883 49.883 83.7826 49.8023" fill="#004A98"/>
<path d="M90.2737 52.4818C90.5658 52.4657 90.7605 52.385 90.8417 52.272C90.9228 52.1429 90.9715 51.8846 90.9877 51.5133C91.0364 50.5287 91.0688 49.7377 91.0688 49.1404V44.7337C91.0688 44.3785 91.0202 44.1364 90.9066 44.0073C90.793 43.8781 90.5982 43.7974 90.3061 43.7974H90.0952L90.0303 43.7167L90.1114 42.9096C90.6956 42.8289 91.2798 42.732 91.8478 42.619C92.4157 42.506 92.789 42.4253 92.9675 42.4092L93.1135 42.5706C93.1135 42.5706 93.0811 42.7643 93.0324 42.9742C92.9837 43.1679 92.9675 43.3777 92.935 43.5553L92.9999 43.636C93.86 42.8773 94.3793 42.506 94.574 42.506C95.1907 42.506 95.7262 42.6513 96.1968 42.9257C96.6674 43.2002 97.0244 43.6037 97.284 44.1203C97.5437 44.6368 97.6735 45.2341 97.6735 45.912C97.6735 46.7191 97.495 47.4132 97.138 48.0266C96.781 48.64 96.2941 49.1081 95.6775 49.4471C95.0446 49.7861 94.3306 49.9475 93.5354 49.9475C93.4056 49.9475 93.2596 49.9475 93.1298 49.9475C92.9999 49.9475 92.9026 49.9314 92.8539 49.9153V51.368C92.8539 51.7877 92.9026 52.0783 92.9675 52.2236C93.0324 52.3688 93.1947 52.4334 93.4219 52.4334C93.5679 52.4334 93.6977 52.4334 93.8113 52.4334C93.9249 52.4334 94.0061 52.4334 94.071 52.4334L94.1034 52.498L93.9411 53.4504C93.714 53.4504 93.503 53.4504 93.3245 53.4504H92.0587C91.6855 53.4504 91.3123 53.4504 90.9228 53.4665C90.5333 53.4988 90.2737 53.5149 90.1601 53.5149L90.2899 52.5625L90.2737 52.4818ZM95.2556 48.0751C95.5315 47.6876 95.6775 47.155 95.6775 46.4609C95.6775 45.7022 95.5314 45.1049 95.2394 44.6529C94.9473 44.201 94.574 43.975 94.1034 43.975C93.9574 43.975 93.7789 44.0234 93.5679 44.1041C93.3569 44.1848 93.1622 44.314 92.9675 44.4592C92.9026 45.6699 92.8701 46.9935 92.8701 48.4302C92.9999 48.4786 93.1784 48.527 93.4056 48.5916C93.6328 48.64 93.8438 48.6723 94.0547 48.6723C94.5578 48.6723 94.9635 48.4786 95.2394 48.0912" fill="#004A98"/>
<path d="M102.835 49.6408C102.575 49.4471 102.413 49.1404 102.364 48.753L102.234 48.7046C101.91 49.0436 101.585 49.3341 101.261 49.5601C100.952 49.7861 100.693 49.8991 100.514 49.8991C99.8975 49.8991 99.3944 49.6893 98.9887 49.2534C98.583 48.8176 98.3721 48.2849 98.3721 47.6392C98.3721 47.3164 98.4532 47.042 98.6155 46.7998C98.7778 46.5738 99.0049 46.4124 99.2646 46.3479L102.283 45.6538V45.2825C102.299 44.8305 102.186 44.4915 101.942 44.2332C101.699 43.9911 101.374 43.862 100.952 43.862C100.676 43.862 100.368 43.9266 100.044 44.0718C99.719 44.2171 99.4106 44.3785 99.1348 44.5884L98.9887 44.5238L98.7291 43.5876C99.2484 43.297 99.8001 43.0226 100.368 42.7805C100.936 42.5383 101.342 42.4092 101.585 42.4092C102.445 42.4092 103.094 42.6029 103.532 42.9903C103.971 43.3777 104.182 43.8943 104.182 44.5238C104.182 44.7498 104.133 45.2179 104.036 45.9282C103.922 46.929 103.857 47.5424 103.857 47.7361C103.857 47.9298 103.906 48.0912 104.019 48.2042C104.117 48.3172 104.263 48.3818 104.425 48.3818C104.555 48.3818 104.685 48.3495 104.831 48.301C104.977 48.2365 105.09 48.1881 105.188 48.1235L105.415 48.4463C105.22 48.7853 104.993 49.092 104.717 49.3987C104.441 49.7054 104.165 49.8991 103.906 49.9637C103.451 49.9637 103.078 49.8668 102.818 49.657M101.634 48.301C101.845 48.2203 102.04 48.1073 102.202 47.9782L102.25 46.4931L100.579 46.9613C100.336 47.0258 100.206 47.1872 100.206 47.4778C100.206 47.7684 100.287 47.9782 100.449 48.1558C100.611 48.3333 100.822 48.4302 101.082 48.4302C101.244 48.4302 101.423 48.3818 101.634 48.301Z" fill="#004A98"/>
<path d="M111.078 49.6893C110.672 49.5117 110.445 49.3018 110.397 49.0436C110.397 48.8337 110.478 48.527 110.624 48.1719C110.77 47.8006 110.916 47.5262 111.062 47.3487H111.37C111.387 47.7684 111.516 48.1073 111.76 48.3656C112.003 48.6239 112.311 48.753 112.701 48.753C112.961 48.753 113.188 48.6562 113.366 48.4625C113.545 48.2688 113.642 48.0428 113.642 47.7684C113.642 47.4939 113.529 47.2518 113.301 47.042C113.074 46.8483 112.733 46.6061 112.263 46.3479C111.857 46.1219 111.516 45.912 111.273 45.7183C111.013 45.5246 110.802 45.2825 110.624 45.0081C110.445 44.7336 110.348 44.3947 110.348 44.0073C110.348 43.6844 110.429 43.3777 110.591 43.1356C110.754 42.8773 110.997 42.5868 111.322 42.2478C111.597 41.9734 111.792 41.7312 111.938 41.5375C112.068 41.3438 112.133 41.1178 112.133 40.8918C112.133 40.5044 111.987 40.1977 111.695 39.9556C111.403 39.7135 111.013 39.6005 110.543 39.6005C109.991 39.6005 109.601 39.7942 109.374 40.1654C109.147 40.5367 109.034 41.1663 109.034 42.0541L108.952 48.0266C108.952 48.5109 109.131 48.753 109.488 48.753C109.65 48.753 109.78 48.753 109.877 48.753C109.975 48.753 110.04 48.753 110.072 48.753L110.137 48.8337L109.991 49.8507C109.861 49.8507 109.618 49.8507 109.261 49.8345C108.92 49.8345 108.563 49.8184 108.238 49.8184C107.914 49.8184 107.524 49.8184 107.07 49.8507C106.632 49.8668 106.34 49.8991 106.194 49.9152L106.291 48.9629C106.632 48.9144 106.859 48.8337 106.989 48.6885C107.102 48.5432 107.167 48.301 107.167 47.9621V44.4269C107.167 44.201 107.086 44.0395 106.94 43.9588C106.794 43.8781 106.534 43.8136 106.145 43.8136L106.08 43.7167L106.21 42.9257L107.167 42.7643C107.167 41.36 107.508 40.2462 108.206 39.4713C108.904 38.6804 109.861 38.293 111.094 38.293C111.646 38.293 112.133 38.3898 112.587 38.5674C113.026 38.7611 113.366 39.0194 113.626 39.3422C113.869 39.6812 113.999 40.0525 113.999 40.456C113.999 40.8273 113.918 41.1501 113.74 41.4407C113.561 41.7151 113.318 42.0379 112.993 42.3769C112.75 42.6352 112.555 42.8612 112.425 43.0387C112.295 43.2163 112.23 43.4261 112.23 43.636C112.23 43.8781 112.328 44.1041 112.539 44.2817C112.75 44.4592 113.074 44.6852 113.545 44.9435C113.983 45.1856 114.34 45.4116 114.6 45.6053C114.859 45.799 115.103 46.0412 115.281 46.3479C115.476 46.6546 115.573 47.0097 115.573 47.4132C115.573 47.8975 115.427 48.3333 115.151 48.7207C114.875 49.1243 114.502 49.431 114.032 49.657C113.561 49.883 113.026 50.0121 112.458 50.0121C111.938 50.0121 111.468 49.9314 111.078 49.7538" fill="#004A98"/>
</g>
</svg>
