<svg width="198" height="80" viewBox="0 0 198 80" fill="none" xmlns="http://www.w3.org/2000/svg">
<mask id="mask0_55_954" style="mask-type:luminance" maskUnits="userSpaceOnUse" x="0" y="0" width="198" height="80">
<path d="M198 0.372864H0V80H198V0.372864Z" fill="white"/>
</mask>
<g mask="url(#mask0_55_954)">
<path d="M8.66101 2.54962C8.66101 2.54962 12.2233 8.47133 17.7414 12.0056C20.7915 13.9483 23.5622 15.9378 31.3621 16.7571C37.8814 17.4358 44.1911 15.4931 50.757 15.0952C57.3461 14.5803 64.7501 14.7207 70.8503 17.9273C60.955 17.2018 52.2937 20.2914 45.5415 26.6578C27.4505 43.6271 18.5331 38.9927 16.3445 37.8224C12.1768 35.5989 7.31059 27.5706 8.05565 6.71589C8.10221 5.35834 8.05565 3.57948 8.63773 2.54962" fill="white"/>
<path d="M48.1963 29.0686C53.1556 26.8216 58.3245 24.4576 62.6086 22.8894C66.9858 21.3446 70.8508 20.6658 75.717 21.8595C78.1151 22.4213 80.8626 23.5448 83.8428 24.3406C86.7998 25.1364 89.943 25.4875 92.8301 25.2768C98.6975 24.8789 103.657 22.2808 108.453 19.987C111.433 18.5827 118.348 14.4632 128.151 12.2865C134.926 10.7651 142.493 9.82886 149.711 11.9822C151.457 12.5439 153.203 13.2695 154.787 14.0419C156.253 14.7441 157.813 15.3761 159.397 15.9612C162.563 17.1549 165.776 18.2082 169.036 19.0742C175.322 21.0637 182.191 20.0573 188.291 17.3188C188.291 17.3188 187.802 17.9039 186.731 18.887C185.66 19.87 180.002 24.5746 172.994 26.1662C167.522 27.4067 162.912 27.1727 158.395 26.3769C140.281 23.1703 137.697 25.6513 130.083 28.9983C123.96 31.69 112.318 36.7691 104.402 37.6117C92.3644 38.8757 85.6589 33.6561 84.2153 33.0008C80.2106 31.2219 75.0651 26.7748 70.129 26.0492C67.7774 25.6981 63.9124 25.7683 60.3035 26.4003C58.5806 26.7046 48.2196 29.0452 48.2196 29.0452" fill="white"/>
<path d="M193.343 65.5351C191.62 66.167 188.57 66.7756 183.983 67.0799C179.513 67.3608 173.669 66.8926 168.034 65.0436C164.938 64.0137 157.79 59.8474 152.807 56.1259C150.246 54.2066 143.983 50.2978 135.95 50.3446C130.083 50.1574 123.493 51.9596 117.207 53.1299C121.002 50.4616 124.751 47.7699 128.942 45.2421C133.156 42.7611 138.302 39.9758 144.099 40.28C146.893 40.4205 152.015 41.544 157.813 45.2187C161.305 47.4189 166.358 51.6085 169.222 54.113C172.388 56.8749 180.141 61.7667 185.217 63.8499C188.337 65.1372 192.132 65.6755 193.343 65.5351Z" fill="white"/>
<path d="M152.691 34.2413C144.798 33.4923 137.068 35.5286 131.387 38.3374C128.523 39.7183 112.202 51.2574 101.887 55.0726C96.7649 56.8047 90.5017 57.7409 84.8672 55.3769C81.4446 53.9491 78.93 51.7022 75.9963 50.5553C73.1092 49.3382 70.0358 48.753 66.8693 48.7296C60.513 48.7296 53.6445 50.0169 47.0321 51.7022C41.5838 53.1065 36.252 53.7151 31.1995 53.3406C23.7489 52.7788 12.1772 49.3616 6.05371 45.7336C6.05371 45.7336 9.40649 46.389 14.2727 46.3422C19.1388 46.3422 25.5184 45.64 31.1064 43.5335C33.5046 42.6206 43.8423 36.6755 46.3801 35.4116C51.5257 32.8604 54.4128 31.7837 57.2301 31.1049C64.1685 29.4197 70.3851 31.5262 73.7611 32.7667C84.3084 36.6755 93.4121 45.2187 98.8371 45.8039C105.077 46.4826 111.689 42.7845 120.84 38.5012C133.925 32.3688 146.637 32.8369 152.691 34.2413Z" fill="white"/>
<path d="M24.6807 72.4867C24.0986 72.3696 23.6096 72.2292 23.2371 72.0654C22.8646 71.9249 22.655 71.8313 22.655 71.8079L22.4688 71.5036C22.4688 71.5036 22.5153 71.1759 22.5619 70.8248C22.6084 70.4738 22.6783 70.0056 22.7249 69.3971C22.7947 68.8119 22.818 68.2268 22.818 67.665L24.6574 67.5246C24.6574 68.3672 24.7272 69.0226 24.8902 69.4673C25.0299 69.912 25.286 70.2397 25.6353 70.4269C25.9845 70.6142 26.4967 70.7078 27.1487 70.7078C27.8704 70.7078 28.4525 70.544 28.8716 70.2397C29.314 69.9354 29.5235 69.4907 29.5235 68.929C29.5235 68.4374 29.2907 68.0161 28.8483 67.665C28.3827 67.314 27.6842 66.916 26.7296 66.4479C26.6597 66.4245 26.4967 66.3309 26.2173 66.1905C25.0997 65.6521 24.215 65.0904 23.5863 64.4818C22.9577 63.8733 22.655 63.1009 22.655 62.1412C22.655 61.2752 22.9111 60.5262 23.4234 59.824C23.9356 59.1453 24.6341 58.6069 25.5421 58.2324C26.4502 57.8579 27.4746 57.6473 28.6155 57.6473C29.2674 57.6473 29.8961 57.6941 30.4549 57.7877C31.0137 57.8813 31.456 57.975 31.8053 58.0686C32.1313 58.1622 32.3641 58.2324 32.4339 58.2558L32.5969 58.5367C32.5969 58.5367 32.5271 58.8644 32.4572 59.2155C32.3874 59.59 32.2942 60.0581 32.2244 60.6198C32.1545 61.1816 32.0847 61.7667 32.0381 62.3753L30.385 62.5157L30.1755 62.3753C30.1755 62.3753 30.1755 62.2349 30.1988 62.0944C30.1988 61.954 30.1988 61.7667 30.1988 61.5561C30.1988 60.8773 30.0358 60.4092 29.6865 60.1049C29.3606 59.824 28.7785 59.6836 27.9869 59.6836C27.3349 59.6836 26.8227 59.8474 26.4036 60.1517C25.9845 60.456 25.775 60.8539 25.775 61.3454C25.775 61.6965 25.9147 62.0242 26.1708 62.3285C26.4269 62.6328 26.7529 62.8668 27.1021 63.0775C27.4746 63.2881 28.0101 63.569 28.7086 63.9201C29.5468 64.318 30.2453 64.6925 30.7808 65.0202C31.3396 65.3478 31.782 65.7692 32.1545 66.2841C32.5271 66.799 32.7133 67.4076 32.7133 68.1098C32.7133 68.9992 32.4572 69.795 31.945 70.4972C31.4328 71.1759 30.711 71.7143 29.7797 72.0888C28.8483 72.4633 27.754 72.6505 26.52 72.6505C25.8215 72.6505 25.1929 72.5803 24.6108 72.4633" fill="white"/>
<path d="M35.3203 71.293C34.4355 70.3567 33.9932 69.0928 33.9932 67.5012C33.9932 66.3777 34.226 65.3946 34.6917 64.5286C35.1573 63.6626 35.8092 62.9838 36.6242 62.4923C37.4624 62.0008 38.3937 61.7667 39.4414 61.7667C39.9304 61.7667 40.396 61.7901 40.8151 61.8603C41.2342 61.9306 41.5835 62.0008 41.8163 62.071C42.0491 62.1412 42.2121 62.188 42.282 62.2114L42.3751 62.4221C42.3751 62.4221 42.3285 62.7264 42.2587 63.0541C42.1888 63.3817 42.119 63.803 42.0491 64.2946C41.9793 64.8095 41.9094 65.3478 41.8862 65.8862L40.4426 65.9798V65.2308C40.4426 64.7159 40.3262 64.318 40.0701 64.0371C39.814 63.7562 39.488 63.6158 39.0223 63.6158C38.3238 63.6158 37.7883 63.8733 37.4158 64.3882C37.0433 64.9031 36.857 65.6521 36.857 66.6118C36.857 67.8523 37.0665 68.7885 37.5089 69.4439C37.9513 70.0992 38.5567 70.4503 39.3483 70.4503C39.7208 70.4503 40.0934 70.4035 40.4426 70.3099C40.7918 70.2163 41.0945 70.0993 41.3274 70.0056C41.5602 69.8886 41.6999 69.8418 41.7697 69.795L41.9327 69.8652L42.282 71.0121C42.282 71.0121 41.9327 71.2695 41.5602 71.5504C41.1877 71.8079 40.7453 72.0653 40.2563 72.3228C39.7674 72.5803 39.325 72.6973 38.9059 72.6973C37.3925 72.6973 36.1818 72.2292 35.297 71.3164" fill="white"/>
<path d="M44.4014 70.778C44.5643 70.6142 44.6342 70.3099 44.6342 69.8886V58.9346C44.6342 58.4431 44.5643 58.1154 44.4246 57.9515C44.2849 57.7643 44.0521 57.6707 43.6796 57.6707H43.1674L43.0742 57.577L43.2139 56.4067C44.8205 56.1727 46.3339 55.9386 47.7541 55.6812L47.9171 56.1025C47.7541 56.2663 47.6377 57.0153 47.5446 58.3494C47.4282 59.6836 47.3583 61.4624 47.2885 63.686C47.7774 63.2179 48.3129 62.7732 48.9416 62.3519C49.5702 61.9306 50.0126 61.7433 50.292 61.7433C51.363 61.7433 52.2012 62.0008 52.7833 62.4923C53.3654 63.0072 53.6681 63.7094 53.6681 64.6456C53.6681 64.9967 53.5982 65.7925 53.4585 67.0096C53.3188 68.5544 53.2257 69.5375 53.2257 69.9588C53.2257 70.3567 53.2722 70.6376 53.3887 70.8014C53.5051 70.9653 53.6913 71.0589 53.9475 71.0589L54.6227 71.0121L54.6692 71.1057L54.4597 72.4866H53.9475C53.086 72.4398 52.4341 72.4164 52.0382 72.4164C51.4794 72.4164 50.6645 72.4866 49.5469 72.6037L49.6634 71.1993C50.0359 71.1291 50.3153 70.9887 50.4783 70.8014C50.6412 70.6142 50.7344 70.3099 50.7344 69.9354L50.8275 66.0266C50.8275 64.7159 50.3619 64.0605 49.3607 64.0605C49.1046 64.0605 48.7786 64.1541 48.3828 64.318C47.987 64.4818 47.6144 64.7159 47.2652 64.9967C47.2419 65.8628 47.2186 67.548 47.2186 70.0056C47.2186 70.3801 47.2652 70.6376 47.3816 70.8014C47.498 70.9419 47.661 71.0355 47.8938 71.0355H48.4759L48.5225 71.1291L48.2896 72.4866C48.1034 72.4866 47.9404 72.4866 47.8473 72.4866C46.9858 72.4632 46.3106 72.4398 45.8682 72.4398C45.0067 72.4398 44.1685 72.4398 43.3769 72.5101L43.5864 71.1291C43.9823 71.0823 44.2384 70.9653 44.4014 70.8014" fill="white"/>
<path d="M57.2298 68.6247C56.671 66.5884 56.2752 65.2074 56.0423 64.4818C55.8095 63.7328 55.3671 63.3583 54.6686 63.3583L54.6221 63.2647L54.7851 62.0008H56.8573C57.4626 62.0008 58.0913 62.0008 58.6966 61.954C59.302 61.9072 59.6978 61.8838 59.8841 61.8604L59.9306 61.9774L59.7211 63.2647C59.2787 63.3115 58.976 63.3817 58.8363 63.452C58.6966 63.5222 58.6268 63.6626 58.6268 63.8499C58.6268 64.1073 58.813 65.0436 59.2089 66.6352C59.6047 68.2268 59.8608 69.3269 60.0238 69.8886H60.2566C60.7223 68.6481 61.3509 66.799 62.096 64.3414C62.0028 63.9903 61.8631 63.7328 61.7002 63.5924C61.5372 63.452 61.2345 63.3817 60.8387 63.3817L60.7688 63.2647L60.9551 62.0008H63.0273C63.6327 62.0008 64.238 62.0008 64.8434 61.9774C65.4255 61.9306 65.8213 61.9072 65.9843 61.9072L66.0308 62.0242L65.8446 63.3115C65.3789 63.3583 65.0995 63.4051 64.9598 63.4754C64.8434 63.5456 64.7735 63.686 64.7735 63.8733C64.7735 64.1307 64.9598 65.067 65.3556 66.6586C65.7514 68.2502 66.0075 69.3503 66.1705 69.912H66.3801C67.032 68.0629 67.5442 66.6352 67.8702 65.6521C68.1962 64.6691 68.3591 64.0605 68.3591 63.8265C68.3591 63.6392 68.3126 63.5222 68.2194 63.452C68.1263 63.3817 67.94 63.3583 67.6374 63.3583H67.032L66.9389 63.2179L67.1251 61.9774C67.2881 61.9774 67.5675 61.9774 68.0332 62.0008C68.4756 62.0008 68.9645 62.0008 69.5 62.0008H71.5489L71.3627 63.3349C71.0367 63.3817 70.8039 63.4754 70.6642 63.6392C70.5245 63.803 70.3615 64.1307 70.1519 64.6691L67.3812 72.393L64.6338 72.7441C64.5873 72.4164 64.238 71.0355 63.6094 68.5545L63.2368 67.0799H62.9807L61.2578 72.393L58.4638 72.7441C58.2775 72.0419 57.8817 70.661 57.3229 68.6247" fill="white"/>
<path d="M72.5504 71.2462C72.9927 71.1759 73.2954 71.0355 73.505 70.8014C73.7145 70.5908 73.8077 70.2631 73.8077 69.8418V64.9733C73.8077 64.4818 73.7378 64.1541 73.5981 63.9903C73.4584 63.8031 73.2256 63.7328 72.8531 63.7328C72.7366 63.7328 72.6435 63.7328 72.5271 63.7328C72.434 63.7328 72.3641 63.7562 72.3408 63.7796L72.4805 62.4923C73.3187 62.3753 74.1802 62.2349 75.0417 62.071C75.9031 61.9072 76.4619 61.8135 76.7181 61.7433L76.9276 62.0944C76.7646 62.4221 76.6249 63.3349 76.5318 64.8095C76.4387 66.2841 76.3921 68.0395 76.3921 70.029C76.3921 70.3801 76.4387 70.6376 76.5551 70.8014C76.6715 70.9419 76.8345 71.0355 77.0906 71.0355C77.2303 71.0355 77.3467 71.0355 77.4864 71.0355C77.6028 71.0355 77.6959 71.0121 77.7425 71.0121L77.8124 71.1291L77.5795 72.5101C77.4165 72.5101 77.0906 72.4867 76.6016 72.4633C76.1127 72.4633 75.6237 72.4399 75.1115 72.4399C74.6458 72.4399 74.1103 72.4867 73.5283 72.5335C72.9462 72.6037 72.5504 72.6505 72.3641 72.6739L72.5504 71.2462ZM73.7611 59.3793C73.4817 59.0985 73.3653 58.724 73.3653 58.2324C73.3653 57.6941 73.5283 57.2494 73.8542 56.9217C74.1802 56.594 74.5993 56.4302 75.1348 56.4302C75.6005 56.4302 75.9963 56.5706 76.2524 56.8749C76.5318 57.1558 76.6482 57.5537 76.6482 58.0452C76.6482 58.5601 76.4852 59.0048 76.1593 59.3325C75.8333 59.6602 75.4142 59.824 74.902 59.824C74.413 59.824 74.0172 59.6836 73.7611 59.4027" fill="white"/>
<path d="M86.9394 70.778C87.1023 70.5908 87.1722 70.2865 87.1955 69.912L87.2653 66.0032C87.2653 65.3479 87.1489 64.8563 86.8928 64.5287C86.66 64.201 86.2874 64.0371 85.7985 64.0371C85.2164 64.0371 84.5645 64.318 83.8194 64.9031C83.6797 67.6182 83.5866 69.3035 83.5866 69.9822C83.5866 70.3801 83.6331 70.6376 83.7263 70.778C83.8194 70.9185 84.0057 70.9887 84.2618 70.9887H84.8672L84.9137 71.0589L84.6809 72.4633C84.5179 72.4633 84.2152 72.4399 83.7496 72.4165C83.2839 72.4165 82.8182 72.4165 82.3293 72.4165C81.7239 72.4165 81.1651 72.4165 80.6529 72.4165C80.1407 72.4165 79.8147 72.4399 79.6517 72.4633L79.8613 71.0823C80.3037 71.0589 80.6063 70.9419 80.7693 70.7546C80.9556 70.5674 81.0254 70.2631 81.0254 69.8418V65.067C81.0254 64.5521 80.9556 64.1776 80.7926 63.9903C80.6296 63.8031 80.3502 63.7094 79.9311 63.7094H79.6517L79.5586 63.5924L79.675 62.4221C80.5132 62.3051 81.3514 62.1646 82.1896 62.0008C83.0278 61.837 83.5633 61.7433 83.7961 61.6965L83.9824 61.9306C83.9824 61.9306 83.9125 62.2115 83.8427 62.5391C83.7728 62.8668 83.7496 63.1711 83.7263 63.4988L83.7961 63.569C84.3316 63.1477 84.8904 62.7498 85.4725 62.3519C86.0546 61.954 86.497 61.7433 86.7531 61.7433C87.5913 61.7433 88.2665 61.9072 88.802 62.2115C89.3375 62.5391 89.7101 62.9839 89.9196 63.6158C90.3387 63.2413 90.8742 62.8434 91.5261 62.3987C92.1781 61.954 92.6437 61.7433 92.8999 61.7433C93.9709 61.7433 94.7858 62.0008 95.3911 62.5157C95.9965 63.0307 96.2759 63.7328 96.2759 64.6457C96.2759 64.9968 96.2061 65.7926 96.0664 67.0097C95.9267 68.5545 95.8335 69.5375 95.8335 69.9588C95.8335 70.3567 95.8801 70.6376 95.9965 70.8015C96.1129 70.9653 96.2992 71.0589 96.5553 71.0589C96.695 71.0589 96.8347 71.0589 96.9744 71.0589C97.1141 71.0589 97.2072 71.0589 97.2538 71.0589L97.3004 71.1525L97.0675 72.5335C96.8813 72.5335 96.5553 72.5101 96.0896 72.4867C95.6007 72.4867 95.135 72.4867 94.6228 72.4867C94.2736 72.4867 93.8079 72.4867 93.2724 72.5335C92.7136 72.5569 92.3643 72.5803 92.2014 72.6037L92.3643 71.1994C92.7136 71.1525 92.9464 71.0355 93.0861 70.8483C93.2258 70.661 93.3189 70.3801 93.3189 69.9822L93.3888 66.0734C93.3888 64.7627 92.9231 64.1073 91.922 64.1073C91.3632 64.1073 90.7112 64.3882 89.9895 64.95L89.7101 70.0291C89.7101 70.427 89.7799 70.7078 89.873 70.8717C89.9895 71.0355 90.1524 71.1291 90.4086 71.1291C90.5483 71.1291 90.6647 71.1291 90.7811 71.1291C90.8975 71.1291 90.9906 71.1291 91.0372 71.1291L91.0838 71.2228L90.8509 72.6037C90.6879 72.6037 90.362 72.5803 89.9196 72.5569C89.4539 72.5569 88.9883 72.5569 88.4993 72.5569C88.1501 72.5569 87.6844 72.5803 87.1023 72.6505C86.5435 72.6973 86.171 72.7441 85.9848 72.7441L86.1477 71.3398C86.497 71.2696 86.7764 71.1291 86.9161 70.9419" fill="white"/>
<path d="M105.846 70.778C106.009 70.5908 106.078 70.2865 106.102 69.912L106.172 66.0032C106.172 65.3479 106.055 64.8563 105.799 64.5287C105.566 64.201 105.194 64.0371 104.705 64.0371C104.123 64.0371 103.471 64.318 102.726 64.9031C102.586 67.6182 102.493 69.3035 102.493 69.9822C102.493 70.3801 102.539 70.6376 102.633 70.778C102.726 70.9185 102.912 70.9887 103.168 70.9887H103.773L103.82 71.0589L103.587 72.4633C103.424 72.4633 103.121 72.4399 102.656 72.4165C102.19 72.4165 101.724 72.4165 101.236 72.4165C100.63 72.4165 100.071 72.4165 99.5591 72.4165C99.0469 72.4165 98.721 72.4399 98.558 72.4633L98.7675 71.0823C99.2099 71.0589 99.5126 70.9419 99.6756 70.7546C99.8618 70.5674 99.9317 70.2631 99.9317 69.8418V65.067C99.9317 64.5521 99.8618 64.1776 99.6988 63.9903C99.5359 63.8031 99.2565 63.7094 98.8374 63.7094H98.558L98.4648 63.5924L98.5813 62.4221C99.4195 62.3051 100.258 62.1646 101.096 62.0008C101.934 61.837 102.47 61.7433 102.702 61.6965L102.889 61.9306C102.889 61.9306 102.819 62.2115 102.749 62.5391C102.679 62.8668 102.656 63.1711 102.633 63.4988L102.702 63.569C103.238 63.1477 103.797 62.7498 104.379 62.3519C104.961 61.954 105.403 61.7433 105.659 61.7433C106.498 61.7433 107.173 61.9072 107.708 62.2115C108.244 62.5391 108.616 62.9839 108.826 63.6158C109.245 63.2413 109.78 62.8434 110.432 62.3987C111.084 61.954 111.55 61.7433 111.806 61.7433C112.877 61.7433 113.692 62.0008 114.297 62.5157C114.903 63.0307 115.182 63.7328 115.182 64.6457C115.182 64.9968 115.112 65.7926 114.973 67.0097C114.833 68.5545 114.74 69.5375 114.74 69.9588C114.74 70.3567 114.786 70.6376 114.903 70.8015C115.019 70.9653 115.205 71.0589 115.462 71.0589C115.601 71.0589 115.741 71.0589 115.881 71.0589C116.02 71.0589 116.113 71.0589 116.16 71.0589L116.207 71.1525L115.974 72.5335C115.788 72.5335 115.462 72.5101 114.996 72.4867C114.507 72.4867 114.041 72.4867 113.529 72.4867C113.18 72.4867 112.714 72.4867 112.179 72.5335C111.62 72.5569 111.271 72.5803 111.108 72.6037L111.271 71.1994C111.62 71.1525 111.853 71.0355 111.992 70.8483C112.132 70.661 112.225 70.3801 112.225 69.9822L112.295 66.0734C112.295 64.7627 111.829 64.1073 110.828 64.1073C110.269 64.1073 109.617 64.3882 108.896 64.95L108.616 70.0291C108.616 70.427 108.686 70.7078 108.779 70.8717C108.896 71.0355 109.059 71.1291 109.315 71.1291C109.454 71.1291 109.571 71.1291 109.687 71.1291C109.804 71.1291 109.897 71.1291 109.943 71.1291L109.99 71.2228L109.757 72.6037C109.594 72.6037 109.268 72.5803 108.826 72.5569C108.36 72.5569 107.895 72.5569 107.406 72.5569C107.056 72.5569 106.591 72.5803 106.009 72.6505C105.45 72.6973 105.077 72.7441 104.891 72.7441L105.054 71.3398C105.403 71.2696 105.683 71.1291 105.822 70.9419" fill="white"/>
<path d="M120.258 72.4867C119.676 72.3696 119.187 72.2292 118.814 72.0654C118.442 71.9249 118.232 71.8313 118.232 71.8079L118.046 71.5036C118.046 71.5036 118.092 71.1759 118.139 70.8248C118.186 70.4738 118.255 70.0056 118.302 69.3971C118.372 68.8119 118.395 68.2268 118.395 67.665L120.235 67.5246C120.235 68.3672 120.304 69.0226 120.467 69.4673C120.607 69.912 120.863 70.2397 121.212 70.4269C121.562 70.6142 122.074 70.7078 122.726 70.7078C123.448 70.7078 124.03 70.544 124.449 70.2397C124.891 69.9354 125.101 69.4907 125.101 68.929C125.101 68.4374 124.868 68.0161 124.425 67.665C123.96 67.314 123.261 66.916 122.307 66.4479C122.237 66.4245 122.074 66.3309 121.794 66.1905C120.677 65.6521 119.792 65.0904 119.163 64.4818C118.535 63.8733 118.232 63.1009 118.232 62.1412C118.232 61.2752 118.488 60.5262 119.001 59.824C119.513 59.1453 120.211 58.6069 121.119 58.2324C122.027 57.8579 123.052 57.6473 124.193 57.6473C124.845 57.6473 125.45 57.6941 126.032 57.7877C126.591 57.8813 127.033 57.975 127.382 58.0686C127.708 58.1622 127.941 58.2324 128.011 58.2558L128.174 58.5367C128.174 58.5367 128.104 58.8644 128.034 59.2155C127.965 59.59 127.895 60.0581 127.802 60.6198C127.732 61.1816 127.662 61.7667 127.615 62.3753L125.962 62.5157L125.753 62.3753C125.753 62.3753 125.753 62.2349 125.753 62.0944C125.753 61.954 125.776 61.7667 125.776 61.5561C125.776 60.8773 125.613 60.4092 125.264 60.1049C124.938 59.824 124.356 59.6836 123.564 59.6836C122.912 59.6836 122.4 59.8474 121.981 60.1517C121.562 60.456 121.375 60.8539 121.375 61.3454C121.375 61.6965 121.515 62.0242 121.771 62.3285C122.027 62.6328 122.353 62.8668 122.703 63.0775C123.075 63.2881 123.611 63.569 124.309 63.9201C125.147 64.318 125.846 64.6925 126.381 65.0202C126.94 65.3478 127.382 65.7692 127.755 66.2841C128.128 66.799 128.314 67.4076 128.314 68.1098C128.314 68.9992 128.058 69.795 127.545 70.4972C127.033 71.1759 126.311 71.7143 125.38 72.0888C124.449 72.4633 123.354 72.6505 122.12 72.6505C121.422 72.6505 120.793 72.5803 120.211 72.4633" fill="white"/>
<path d="M129.524 76.3486C129.943 76.3252 130.223 76.2082 130.339 76.0443C130.455 75.8571 130.525 75.4826 130.549 74.9443C130.618 73.5165 130.665 72.3696 130.665 71.5036V65.1138C130.665 64.5988 130.595 64.2477 130.432 64.0605C130.269 63.8732 129.99 63.7562 129.571 63.7562H129.268L129.175 63.6392L129.291 62.4689C130.129 62.3518 130.968 62.2114 131.783 62.0476C132.597 61.8837 133.133 61.7667 133.389 61.7433L133.599 61.9774C133.599 61.9774 133.552 62.2582 133.482 62.5625C133.412 62.8434 133.389 63.1477 133.342 63.4051L133.436 63.5221C134.67 62.4221 135.415 61.8837 135.694 61.8837C136.579 61.8837 137.347 62.0944 138.022 62.4923C138.698 62.8902 139.21 63.4753 139.582 64.2243C139.955 64.9733 140.141 65.8393 140.141 66.8224C140.141 67.9927 139.885 68.9991 139.373 69.8886C138.861 70.778 138.162 71.4568 137.277 71.9483C136.369 72.4398 135.345 72.6739 134.204 72.6739C134.018 72.6739 133.808 72.6739 133.622 72.6739C133.436 72.6739 133.296 72.6505 133.226 72.6271V74.7336C133.226 75.3422 133.296 75.7635 133.389 75.9741C133.482 76.1848 133.715 76.2784 134.041 76.2784C134.251 76.2784 134.437 76.2784 134.6 76.2784C134.763 76.2784 134.879 76.2784 134.972 76.2784L135.019 76.372L134.786 77.753C134.46 77.753 134.157 77.753 133.901 77.753H132.085C131.55 77.753 131.014 77.753 130.455 77.7764C129.897 77.8232 129.524 77.8466 129.361 77.8466L129.547 76.4656L129.524 76.3486ZM136.672 69.9588C137.068 69.397 137.277 68.6246 137.277 67.6182C137.277 66.5181 137.068 65.6521 136.649 64.9967C136.23 64.3414 135.694 64.0137 135.019 64.0137C134.809 64.0137 134.553 64.0839 134.251 64.2009C133.948 64.318 133.668 64.5052 133.389 64.7158C133.296 66.4713 133.249 68.3906 133.249 70.4737C133.436 70.5439 133.692 70.6142 134.018 70.7078C134.344 70.778 134.646 70.8248 134.949 70.8248C135.671 70.8248 136.253 70.5439 136.649 69.9822" fill="white"/>
<path d="M147.545 72.2292C147.173 71.9483 146.94 71.5036 146.87 70.9418L146.684 70.8716C146.218 71.3631 145.753 71.7844 145.287 72.1121C144.845 72.4398 144.472 72.6037 144.216 72.6037C143.331 72.6037 142.609 72.2994 142.027 71.6674C141.445 71.0355 141.143 70.2631 141.143 69.3268C141.143 68.8587 141.259 68.4608 141.492 68.1097C141.725 67.782 142.051 67.548 142.423 67.4543L146.754 66.4479V65.9096C146.777 65.2542 146.614 64.7627 146.265 64.3882C145.916 64.0371 145.45 63.8498 144.845 63.8498C144.449 63.8498 144.006 63.9435 143.541 64.1541C143.075 64.3648 142.633 64.5988 142.237 64.9031L142.027 64.8095L141.655 63.4519C142.4 63.0306 143.191 62.6327 144.006 62.2816C144.821 61.9305 145.403 61.7433 145.753 61.7433C146.987 61.7433 147.918 62.0242 148.547 62.5859C149.175 63.1476 149.478 63.8966 149.478 64.8095C149.478 65.1372 149.408 65.8159 149.268 66.8458C149.105 68.297 149.012 69.1864 149.012 69.4673C149.012 69.7481 149.082 69.9822 149.245 70.146C149.385 70.3099 149.594 70.4035 149.827 70.4035C150.013 70.4035 150.2 70.3567 150.409 70.2865C150.619 70.1928 150.782 70.1226 150.922 70.029L151.247 70.4971C150.968 70.9886 150.642 71.4334 150.246 71.8781C149.85 72.3228 149.455 72.6037 149.082 72.6973C148.43 72.6973 147.895 72.5568 147.522 72.2526M145.822 70.2865C146.125 70.1694 146.405 70.0056 146.637 69.8183L146.707 67.665L144.309 68.3438C143.96 68.4374 143.774 68.6715 143.774 69.0928C143.774 69.5141 143.89 69.8183 144.123 70.0758C144.356 70.3333 144.658 70.4737 145.031 70.4737C145.264 70.4737 145.52 70.4035 145.822 70.2865Z" fill="white"/>
<path d="M159.373 72.2994C158.791 72.0419 158.465 71.7377 158.395 71.3632C158.395 71.0589 158.512 70.6142 158.721 70.0992C158.931 69.5609 159.141 69.163 159.35 68.9055H159.792C159.816 69.5141 160.002 70.0056 160.351 70.3801C160.701 70.7546 161.143 70.9418 161.702 70.9418C162.074 70.9418 162.4 70.8014 162.656 70.5205C162.912 70.2397 163.052 69.912 163.052 69.5141C163.052 69.1162 162.889 68.7651 162.563 68.4608C162.237 68.1799 161.748 67.8289 161.073 67.4544C160.491 67.1267 160.002 66.8224 159.653 66.5415C159.28 66.2607 158.978 65.9096 158.721 65.5117C158.465 65.1138 158.326 64.6222 158.326 64.0605C158.326 63.5924 158.442 63.1477 158.675 62.7966C158.908 62.4221 159.257 62.0008 159.723 61.5092C160.118 61.1113 160.398 60.7603 160.607 60.4794C160.794 60.1985 160.887 59.8708 160.887 59.5431C160.887 58.9814 160.677 58.5367 160.258 58.1856C159.839 57.8345 159.28 57.6707 158.605 57.6707C157.813 57.6707 157.255 57.9515 156.929 58.4899C156.603 59.0282 156.44 59.941 156.44 61.2284L156.323 69.8886C156.323 70.5908 156.579 70.9418 157.092 70.9418C157.324 70.9418 157.511 70.9418 157.65 70.9418C157.79 70.9418 157.883 70.9418 157.93 70.9418L158.023 71.0589L157.813 72.5335C157.627 72.5335 157.278 72.5335 156.766 72.5101C156.277 72.5101 155.764 72.4866 155.299 72.4866C154.833 72.4866 154.274 72.4866 153.622 72.5335C152.994 72.5569 152.575 72.6037 152.365 72.6271L152.505 71.2461C152.994 71.1759 153.32 71.0589 153.506 70.8482C153.669 70.6376 153.762 70.2865 153.762 69.795V64.669C153.762 64.3414 153.646 64.1073 153.436 63.9903C153.227 63.8733 152.854 63.7796 152.295 63.7796L152.202 63.6392L152.388 62.4923L153.762 62.2582C153.762 60.2219 154.251 58.6069 155.252 57.4834C156.253 56.3365 157.627 55.7748 159.397 55.7748C160.188 55.7748 160.887 55.9152 161.539 56.1727C162.167 56.4536 162.656 56.8281 163.029 57.2962C163.378 57.7877 163.564 58.326 163.564 58.9112C163.564 59.4495 163.448 59.9176 163.192 60.3389C162.936 60.7368 162.586 61.205 162.121 61.6965C161.772 62.071 161.492 62.3987 161.306 62.6561C161.12 62.9136 161.026 63.2179 161.026 63.5222C161.026 63.8733 161.166 64.2009 161.469 64.4584C161.772 64.7159 162.237 65.0436 162.912 65.418C163.541 65.7691 164.053 66.0968 164.426 66.3777C164.798 66.6586 165.148 67.0097 165.404 67.4544C165.683 67.8991 165.823 68.414 165.823 68.9992C165.823 69.7013 165.613 70.3333 165.217 70.895C164.822 71.4802 164.286 71.9249 163.611 72.2526C162.936 72.5803 162.167 72.7675 161.352 72.7675C160.607 72.7675 159.932 72.6505 159.373 72.393" fill="white"/>
</g>
</svg>
