<svg width="20" height="20" viewBox="0 0 20 20" fill="none" xmlns="http://www.w3.org/2000/svg">
<path d="M19.4282 2.07826L19.3951 2.05762L15.2186 0L10.7107 6.0105L12.7847 8.77597C12.7226 9.8189 12.2803 10.8029 11.5416 11.5416C10.8028 12.2804 9.8188 12.7227 8.77587 12.7847L6.01045 10.7107L0 15.2185L2.04049 19.3602L2.05767 19.3951L2.07836 19.4281C2.18725 19.6036 2.33923 19.7482 2.51984 19.8483C2.70046 19.9484 2.90368 20.0006 3.11018 20H4.18787C6.26435 20 8.3205 19.591 10.2389 18.7964C12.1573 18.0017 13.9005 16.837 15.3687 15.3687C16.837 13.9004 18.0017 12.1573 18.7964 10.2389C19.591 8.32046 20 6.2643 20 4.18782V3.11008C20.0007 2.90359 19.9485 2.70036 19.8484 2.51975C19.7483 2.33914 19.6036 2.18715 19.4282 2.07826ZM18.4566 4.18782C18.4566 12.0556 12.0556 18.4566 4.18787 18.4566H3.31584L1.95059 15.685L6.01074 12.6399L8.27122 14.3352H8.52845C10.0681 14.3335 11.5441 13.7211 12.6328 12.6325C13.7215 11.5438 14.3338 10.0677 14.3356 8.52811V8.27089L12.6403 6.01046L15.685 1.95054L18.4566 3.31603V4.18782Z" fill="#F28D08"/>
<path d="M19.4099 2.10749L19.41 2.10755C19.5804 2.21334 19.721 2.361 19.8182 2.53646C19.9154 2.71193 19.9662 2.90936 19.9655 3.10997V3.11008V4.18782C19.9655 6.25978 19.5574 8.31145 18.7645 10.2257C17.9716 12.1399 16.8095 13.8792 15.3444 15.3443C13.8793 16.8094 12.14 17.9716 10.2257 18.7645C8.31149 19.5574 6.25983 19.9655 4.18787 19.9655H3.11018H3.11007C2.90946 19.9662 2.71202 19.9154 2.53655 19.8182C2.36109 19.7209 2.21343 19.5804 2.10765 19.4099L2.10756 19.4098L2.08782 19.3783L2.07144 19.345L2.07142 19.3449L0.04356 15.229L6.01045 10.7538L8.75519 12.8123L8.7653 12.8199L8.77792 12.8191C9.82927 12.7566 10.8212 12.3107 11.5659 11.566C12.3107 10.8213 12.7565 9.82936 12.8191 8.77802L12.8198 8.7654L12.8122 8.75529L10.7538 6.0105L15.229 0.0435598L19.3783 2.08777L19.4099 2.10749ZM3.28492 18.4718L3.29439 18.491H3.31584H4.18787C12.0747 18.491 18.491 12.0747 18.491 4.18782V3.31603V3.29459L18.4718 3.28511L15.7003 1.91962L15.6746 1.90698L15.6575 1.92986L12.6127 5.98977L12.5972 6.01046L12.6127 6.03114L14.3011 8.28238V8.52807C14.2994 10.0586 13.6906 11.5259 12.6084 12.6081C11.5262 13.6903 10.0589 14.299 8.52841 14.3007H8.28271L6.03143 12.6123L6.01074 12.5968L5.99006 12.6123L1.92991 15.6575L1.90703 15.6746L1.91967 15.7003L3.28492 18.4718Z" stroke="#EF8700" stroke-opacity="0.6" stroke-width="0.0689415"/>
</svg>
